<svg width="236" height="236" viewBox="0 0 236 236" fill="none" xmlns="http://www.w3.org/2000/svg">
<path d="M27.317 181.084C27.317 135.739 3.82843 104.6 3.82843 82.7508C3.82843 60.9011 16.3889 15.0122 116.905 15.0122C217.422 15.0122 232.172 76.7459 232.172 100.779C232.178 213.318 27.317 261.39 27.317 181.084Z" fill="#EFEFEF"/>
<path d="M45.6981 30.6685L54.969 21.3975L59.6045 26.033L50.3336 35.3039L45.6981 30.6685Z" fill="#A4AFC1"/>
<path d="M19.0432 57.3124L28.3142 48.0414L32.9497 52.6769L23.6787 61.9479L19.0432 57.3124Z" fill="#A4AFC1"/>
<path d="M19.0491 24.8749L23.6846 20.2394L32.9556 29.5104L28.3201 34.1458L19.0491 24.8749Z" fill="#A4AFC1"/>
<path d="M201.138 212.151C195.716 212.151 191.304 207.739 191.304 202.318C191.304 196.896 195.716 192.484 201.138 192.484C206.559 192.484 210.971 196.896 210.971 202.318C210.971 207.739 206.559 212.151 201.138 212.151ZM201.138 199.04C199.335 199.04 197.86 200.508 197.86 202.318C197.86 204.127 199.335 205.595 201.138 205.595C202.94 205.595 204.415 204.127 204.415 202.318C204.415 200.508 202.94 199.04 201.138 199.04Z" fill="#A4AFC1"/>
<path d="M172.083 191.75H63.9167V175.361C63.9167 168.117 69.7839 162.25 77.0278 162.25H158.972C166.216 162.25 172.083 168.117 172.083 175.361V191.75Z" fill="#F3F3F1"/>
<path d="M108.167 160.611V149.598L108.429 55.7222L68.8333 81.9444L70.5378 92.2366L71.4555 97.5466L72.7011 105.151L75.1922 120.098L79.8466 150.339L81.6691 162.25H108.429L108.167 160.611Z" fill="#2FDF84"/>
<path d="M121.278 160.611V42.6111L173.722 62.2778L171.362 74.0122L169.527 83.3211L168.674 87.5166L165.724 102.267L157.281 150.109L155.97 160.611H121.278Z" fill="#2FDF84"/>
<path d="M121.278 42.6111V160.611H134.389V47.5278L121.278 42.6111Z" fill="#00B871"/>
<path d="M108.167 155.694H92.9774L91.155 143.783L86.5005 113.542L84.0094 98.5955L82.7639 90.9911L81.8461 85.6811L80.1417 75.3888L108.429 56.6596V55.7222L68.8333 81.9444L70.5378 92.2366L71.4555 97.5466L72.7011 105.151L75.1922 120.098L79.8466 150.339L81.6691 162.25H108.429L108.167 160.611V155.694Z" fill="#00B871"/>
<path d="M90.1389 162.25H77.0278C69.7839 162.25 63.9167 168.117 63.9167 175.361V191.75H77.0278V175.361C77.0278 168.117 82.895 162.25 90.1389 162.25Z" fill="#D5DBE1"/>
<path d="M172.083 196.667H63.9167C61.2027 196.667 59 194.464 59 191.75V175.361C59 165.416 67.083 157.333 77.0278 157.333H158.972C168.917 157.333 177 165.416 177 175.361V191.75C177 194.464 174.797 196.667 172.083 196.667ZM68.8333 186.833H167.167V175.361C167.167 170.844 163.489 167.167 158.972 167.167H77.0278C72.511 167.167 68.8333 170.844 68.8333 175.361V186.833Z" fill="black"/>
<path d="M108.429 167.167H81.6691C79.2435 167.167 77.172 165.39 76.8114 162.997L63.9822 82.7507C63.6675 80.8365 64.5066 78.9223 66.1193 77.8472L105.715 51.6249C107.216 50.6285 109.163 50.5302 110.763 51.3955C112.362 52.2543 113.359 53.9259 113.352 55.7353L113.083 160.218L113.28 161.47C113.509 162.892 113.103 164.341 112.166 165.436C111.241 166.537 109.871 167.167 108.429 167.167ZM85.8909 157.333H103.25L103.486 64.8934L74.2023 84.2847L80.0433 119.291L85.8909 157.333Z" fill="black"/>
<path d="M155.97 165.528H121.278C118.564 165.528 116.361 163.325 116.361 160.611V42.6112C116.361 40.9985 117.154 39.4842 118.479 38.5729C119.803 37.6486 121.488 37.4454 123.002 38.0092L139.037 44.0206L135.589 53.2312L126.194 49.7108V155.694H151.63L152.404 149.499L160.886 101.414L168.078 65.4114L152.771 59.6753L156.225 50.4713L175.453 57.6824C177.715 58.528 179.019 60.8881 178.547 63.2546L170.549 103.237L162.125 150.974L160.854 161.227C160.539 163.679 158.448 165.528 155.97 165.528Z" fill="black"/>
<path d="M104.797 166.577L100.025 165.377C88.3558 162.44 77.5915 156.56 68.8989 148.359C50.327 130.855 42.6504 104.607 48.8585 79.8729L50.0582 75.1005L59.5965 77.4932L58.4034 82.2722C53.0606 103.558 59.6621 126.142 75.6511 141.207C83.1244 148.26 92.3874 153.321 102.424 155.839L107.196 157.038L104.797 166.577Z" fill="black"/>
<path d="M53.8036 127.772L61.0272 105.299L70.3885 108.308L63.1649 130.781L53.8036 127.772Z" fill="black"/>
<path d="M42.2918 138.017L44.2089 128.373L67.7418 133.051L65.8247 142.695L42.2918 138.017Z" fill="black"/>
<path d="M69.4018 151.304L72.1899 128.422L81.9479 129.611L79.1598 152.493L69.4018 151.304Z" fill="black"/>
<path d="M61.353 156.97L61.7955 147.146L88.1553 148.334L87.7128 158.157L61.353 156.97Z" fill="black"/>
<path d="M86.7365 140.112H96.5699V162.322H86.7365V140.112Z" fill="black"/>
<path d="M37.0736 115.459L41.2814 106.572L61.9243 116.345L57.7164 125.232L37.0736 115.459Z" fill="black"/>
<path d="M48.3574 107.557L58.7176 87.8817L67.4184 92.4632L57.0582 112.139L48.3574 107.557Z" fill="black"/>
<path d="M35.6998 84.9481L43.3796 78.8023L58.5598 97.7715L50.88 103.917L35.6998 84.9481Z" fill="black"/>
<path d="M131.203 166.577L128.81 157.038L133.583 155.839C143.619 153.315 152.882 148.254 160.355 141.207C176.338 126.135 182.946 103.552 177.603 82.2657L176.403 77.4932L185.942 75.1005L187.141 79.8729C193.35 104.607 185.673 130.849 167.101 148.359C158.408 156.553 147.644 162.44 135.975 165.377L131.203 166.577Z" fill="black"/>
<path d="M162.2 110.04L171.561 107.041L178.759 129.508L169.398 132.507L162.2 110.04Z" fill="black"/>
<path d="M167.994 132.965L191.52 128.288L193.438 137.933L169.911 142.61L167.994 132.965Z" fill="black"/>
<path d="M154.126 129.735L163.884 128.546L166.673 151.428L156.915 152.617L154.126 129.735Z" fill="black"/>
<path d="M147.881 148.274L174.241 147.086L174.684 156.91L148.324 158.097L147.881 148.274Z" fill="black"/>
<path d="M139.43 140.112H149.263V162.322H139.43V140.112Z" fill="black"/>
<path d="M174.13 116.51L194.773 106.736L198.981 115.624L178.338 125.397L174.13 116.51Z" fill="black"/>
<path d="M168.272 93.9934L176.973 89.4119L187.333 109.087L178.632 113.669L168.272 93.9934Z" fill="black"/>
<path d="M177.481 97.6403L192.661 78.6711L200.341 84.8169L185.161 103.786L177.481 97.6403Z" fill="black"/>
</svg>
