<svg width="139" height="139" viewBox="0 0 139 139" fill="none" xmlns="http://www.w3.org/2000/svg">
<path d="M16.0892 106.655C16.0892 79.9482 2.25488 61.6079 2.25488 48.7388C2.25488 35.8697 9.65277 8.84192 68.8552 8.84192C128.058 8.84192 136.745 45.202 136.745 59.3568C136.749 125.641 16.0892 153.954 16.0892 106.655Z" fill="#EFEFEF"/>
<path d="M120.66 45.6075C117.467 45.6075 114.868 43.009 114.868 39.8158C114.868 36.6227 117.467 34.0242 120.66 34.0242C123.853 34.0242 126.451 36.6227 126.451 39.8158C126.451 43.009 123.853 45.6075 120.66 45.6075ZM120.66 37.8853C119.598 37.8853 118.729 38.754 118.729 39.8158C118.729 40.8776 119.598 41.7464 120.66 41.7464C121.722 41.7464 122.59 40.8776 122.59 39.8158C122.59 38.754 121.722 37.8853 120.66 37.8853Z" fill="#A4AFC1"/>
<path d="M18.0825 19.7489L23.543 14.2885L26.2732 17.0187L20.8127 22.4791L18.0825 19.7489Z" fill="#A4AFC1"/>
<path d="M2.38599 35.4429L7.84642 29.9824L10.5766 32.7127L5.1162 38.1731L2.38599 35.4429Z" fill="#A4AFC1"/>
<path d="M2.39062 16.3271L5.12084 13.5969L10.5813 19.0574L7.85106 21.7876L2.39062 16.3271Z" fill="#A4AFC1"/>
<path d="M18.0807 32.0331L20.8109 29.3029L26.2713 34.7633L23.5411 37.4935L18.0807 32.0331Z" fill="#A4AFC1"/>
<path d="M101.354 112.938H37.6458C35.5145 112.938 33.7847 111.208 33.7847 109.076V70.4653H105.215V109.076C105.215 111.208 103.486 112.938 101.354 112.938Z" fill="#F3F3F1"/>
<path d="M109.076 70.4653H29.9236C27.7923 70.4653 26.0625 68.7356 26.0625 66.6042V56.9514C26.0625 54.8201 27.7923 53.0903 29.9236 53.0903H109.076C111.208 53.0903 112.938 54.8201 112.938 56.9514V66.6042C112.938 68.7356 111.208 70.4653 109.076 70.4653Z" fill="#2FDF84"/>
<path d="M69.5 51.3296C69.5 51.3296 73.2607 25.8926 93.937 25.8926C114.613 25.8926 107.096 51.3296 69.5 51.3296Z" fill="#2FDF84"/>
<path d="M69.5039 51.3296C69.5039 51.3296 65.7431 25.8926 45.0669 25.8926C24.3907 25.8926 31.9121 51.3296 69.5039 51.3296Z" fill="#2FDF84"/>
<path d="M49.013 26.2439C47.7658 26.0277 46.4608 25.8926 45.0669 25.8926C24.3906 25.8926 31.9082 51.3296 69.5039 51.3296C69.5039 51.3296 69.473 51.152 69.4267 50.8971C40.9664 47.9048 34.5377 28.9892 49.013 26.2439Z" fill="#00B871"/>
<path d="M97.7132 26.2439C96.5741 26.0277 95.3308 25.8926 93.937 25.8926C73.2607 25.8926 69.5 51.3296 69.5 51.3296C72.28 51.3296 74.8438 51.152 77.2995 50.8971C77.8361 47.9048 81.871 28.9892 97.7132 26.2439Z" fill="#00B871"/>
<path d="M41.507 109.076V70.4653H33.7847V109.076C33.7847 111.208 35.5145 112.938 37.6458 112.938H45.3681C43.2367 112.938 41.507 111.208 41.507 109.076Z" fill="#D5DBE1"/>
<path d="M33.7847 66.6042V56.9514C33.7847 54.8201 35.5145 53.0903 37.6458 53.0903H29.9236C27.7923 53.0903 26.0625 54.8201 26.0625 56.9514V66.6042C26.0625 68.7356 27.7923 70.4653 29.9236 70.4653H37.6458C35.5145 70.4653 33.7847 68.7356 33.7847 66.6042Z" fill="#00B871"/>
<path d="M101.354 115.833H37.6459C33.9199 115.833 30.8889 112.802 30.8889 109.076V70.4653C30.8889 68.8668 32.1862 67.5695 33.7847 67.5695H83.5081V73.3611H36.6806V109.076C36.6806 109.609 37.113 110.042 37.6459 110.042H101.354C101.887 110.042 102.319 109.609 102.319 109.076V73.3611H94.0104V67.5695H105.215C106.814 67.5695 108.111 68.8668 108.111 70.4653V109.076C108.111 112.802 105.08 115.833 101.354 115.833Z" fill="black"/>
<path d="M109.076 73.3611H94.1301V67.5695H109.076C109.609 67.5695 110.042 67.137 110.042 66.6042V56.9514C110.042 56.4186 109.609 55.9861 109.076 55.9861H29.9236C29.3908 55.9861 28.9584 56.4186 28.9584 56.9514V66.6042C28.9584 67.137 29.3908 67.5695 29.9236 67.5695H83.6047V73.3611H29.9236C26.1977 73.3611 23.1667 70.3302 23.1667 66.6042V56.9514C23.1667 53.2254 26.1977 50.1945 29.9236 50.1945H109.076C112.802 50.1945 115.833 53.2254 115.833 56.9514V66.6042C115.833 70.3302 112.802 73.3611 109.076 73.3611Z" fill="black"/>
<path d="M69.5 54.2255C68.6583 54.2255 67.8552 53.8587 67.3108 53.2216C66.7586 52.5845 66.5154 51.7389 66.6351 50.9049C68.0637 41.2521 75.6044 22.9929 93.937 22.9929C104.401 22.9968 108.111 28.6494 108.111 33.4913C108.111 42.0977 96.1301 54.2255 69.5 54.2255ZM93.937 28.7884C80.1065 28.7884 74.8554 41.9355 73.114 48.3488C84.0255 47.8392 90.906 45.0785 94.8675 42.7271C100.362 39.4644 102.319 35.8157 102.319 33.4874C102.319 30.0201 97.9912 28.7884 93.937 28.7884Z" fill="black"/>
<path d="M69.5039 54.2255C42.8738 54.2255 30.8928 42.0977 30.8928 33.4913C30.8928 28.6495 34.6072 22.9968 45.0708 22.9968C63.3995 22.9968 70.9402 41.256 72.3688 50.9088C72.4885 51.7428 72.2453 52.5884 71.6931 53.2255C71.1487 53.8587 70.3456 54.2255 69.5039 54.2255ZM45.0708 28.7885C41.0166 28.7885 36.6844 30.024 36.6844 33.4913C36.6844 38.422 45.3063 47.4068 65.886 48.3527C64.1485 41.9356 58.8974 28.7885 45.0708 28.7885Z" fill="black"/>
<path d="M66.6042 52.125H72.3959V112.938H66.6042V52.125Z" fill="black"/>
</svg>
