<svg width="139" height="139" viewBox="0 0 139 139" fill="none" xmlns="http://www.w3.org/2000/svg">
<g clip-path="url(#clip0)">
<path d="M51.7814 135.135C76.0986 124.096 98.5201 129.116 110.239 123.799C121.957 118.478 143.51 100.57 119.042 46.6615C94.574 -7.24729 57.8781 -0.135127 44.9858 5.71446C-15.3711 33.109 8.71067 154.684 51.7814 135.135Z" fill="#EFEFEF"/>
<path d="M25.5034 24.3871L30.9638 18.9267L33.6941 21.6569L28.2336 27.1173L25.5034 24.3871Z" fill="#A4AFC1"/>
<path d="M9.80687 40.0811L15.2673 34.6206L17.9975 37.3508L12.5371 42.8113L9.80687 40.0811Z" fill="#A4AFC1"/>
<path d="M9.80764 20.9615L12.5379 18.2313L17.9983 23.6918L15.2681 26.422L9.80764 20.9615Z" fill="#A4AFC1"/>
<path d="M134.1 72.3958C130.907 72.3958 128.309 69.7973 128.309 66.6042C128.309 63.411 130.907 60.8125 134.1 60.8125C137.293 60.8125 139.892 63.411 139.892 66.6042C139.892 69.7973 137.297 72.3958 134.1 72.3958ZM134.1 64.6736C133.035 64.6736 132.17 65.5424 132.17 66.6042C132.17 67.666 133.035 68.5347 134.1 68.5347C135.166 68.5347 136.031 67.666 136.031 66.6042C136.031 65.5424 135.166 64.6736 134.1 64.6736Z" fill="#A4AFC1"/>
<path d="M112.938 76.257V93.632C112.938 97.8985 109.482 101.354 105.215 101.354H33.7847C29.5182 101.354 26.0625 97.8985 26.0625 93.632V45.3681C26.0625 41.1016 29.5182 37.6459 33.7847 37.6459H54.0556L61.7778 45.3681H74.3264H112.938V76.257Z" fill="#F3F3F1"/>
<path d="M100.389 51.1597C107.319 51.1597 112.937 45.5415 112.937 38.6111C112.937 31.6807 107.319 26.0625 100.389 26.0625C93.4585 26.0625 87.8403 31.6807 87.8403 38.6111C87.8403 45.5415 93.4585 51.1597 100.389 51.1597Z" fill="#2FDF84"/>
<path d="M107.146 49.1868V66.6042L100.389 61.5925L93.6319 66.6042V49.3335L107.146 49.1868Z" fill="#2FDF84"/>
<path d="M95.5625 38.6111C95.5625 33.0357 99.2228 28.3676 104.25 26.7305C103.026 26.3328 101.744 26.0625 100.389 26.0625C93.4582 26.0625 87.8403 31.6804 87.8403 38.6111C87.8403 45.5418 93.4582 51.1597 100.389 51.1597C101.744 51.1597 103.026 50.8894 104.25 50.4917C99.2228 48.8546 95.5625 44.1866 95.5625 38.6111Z" fill="#00B871"/>
<path d="M101.354 49.3335L107.146 49.2717V49.1868L93.6319 49.3335V66.6042L100.389 61.5925L101.354 62.3107V49.3335Z" fill="#00B871"/>
<path d="M33.7847 93.632V45.3681C33.7847 41.1016 37.2404 37.6459 41.5069 37.6459H33.7847C29.5182 37.6459 26.0625 41.1016 26.0625 45.3681V93.632C26.0625 97.8985 29.5182 101.354 33.7847 101.354H41.5069C37.2404 101.354 33.7847 97.8985 33.7847 93.632Z" fill="#D5DBE1"/>
<path d="M105.215 104.25H33.7847C27.9274 104.25 23.1667 99.4893 23.1667 93.6319V45.3681C23.1667 39.5108 27.9274 34.75 33.7847 34.75H54.0556C54.8239 34.75 55.5614 35.055 56.102 35.5994L62.9747 42.4722H74.3225V48.2639H61.7778C61.0094 48.2639 60.272 47.9589 59.7314 47.4144L52.8586 40.5417H33.7847C31.1244 40.5417 28.9583 42.7077 28.9583 45.3681V93.6319C28.9583 96.2923 31.1244 98.4583 33.7847 98.4583H105.215C107.876 98.4583 110.042 96.2923 110.042 93.6319V76.2569H115.833V93.6319C115.833 99.4893 111.073 104.25 105.215 104.25Z" fill="black"/>
<path d="M100.389 54.0555C91.8713 54.0555 84.9444 47.1287 84.9444 38.6111C84.9444 30.0935 91.8713 23.1666 100.389 23.1666C108.907 23.1666 115.833 30.0935 115.833 38.6111C115.833 47.1287 108.907 54.0555 100.389 54.0555ZM100.389 28.9583C95.0683 28.9583 90.7361 33.2866 90.7361 38.6111C90.7361 43.9355 95.0683 48.2639 100.389 48.2639C105.71 48.2639 110.042 43.9355 110.042 38.6111C110.042 33.2866 105.71 28.9583 100.389 28.9583Z" fill="black"/>
<path d="M107.146 69.5001C106.536 69.5001 105.93 69.307 105.42 68.9325L100.389 65.1988L95.3579 68.9325C94.4775 69.585 93.3115 69.6854 92.3308 69.1912C91.3539 68.7008 90.7361 67.6969 90.7361 66.6042V49.3335H96.5278V60.8473L98.663 59.2643C99.69 58.5036 101.088 58.5036 102.115 59.2643L104.25 60.8512V49.1868H110.042V66.6081C110.042 67.7008 109.424 68.7047 108.447 69.195C108.034 69.3997 107.59 69.5001 107.146 69.5001Z" fill="black"/>
</g>
<defs>
<clipPath id="clip0">
<rect width="139" height="139" fill="white"/>
</clipPath>
</defs>
</svg>
