<svg width="108" height="108" viewBox="0 0 108 108" fill="none" xmlns="http://www.w3.org/2000/svg">
<rect width="108" height="108" fill="#021F39"/>
<g clip-path="url(#clip0)">
<rect width="108" height="108" fill="#021F39"/>
<rect x="87.48" y="59.3999" width="8.63999" height="2.16" rx="1" fill="#1CCF6E"/>
<path d="M91.26 60.4799C91.26 59.3999 92.34 59.3999 91.8 59.3999H88.56C88.56 59.3999 87.48 59.3999 87.48 60.4799C87.48 61.5599 88.56 61.5599 88.56 61.5599H91.8C92.34 61.5599 91.26 61.5599 91.26 60.4799Z" fill="#19A98C"/>
<rect x="7.56006" y="87.48" width="8.64" height="2.16" rx="1" fill="#1CCF6E"/>
<path d="M11.3401 88.56C11.3401 87.48 12.4201 87.48 11.8801 87.48H8.64006C8.64006 87.48 7.56006 87.48 7.56006 88.56C7.56006 89.64 8.64006 89.64 8.64006 89.64H11.8801C12.4201 89.64 11.3401 89.64 11.3401 88.56Z" fill="#19A98C"/>
<rect x="7.56006" y="49.6799" width="11.88" height="2.16" rx="1" fill="#1CCF6E"/>
<path d="M12.7576 50.7599C12.7576 49.6799 14.2426 49.6799 13.5001 49.6799H9.04506C9.04506 49.6799 7.56006 49.6799 7.56006 50.7599C7.56006 51.8399 9.04506 51.8399 9.04506 51.8399H13.5001C14.2426 51.8399 12.7576 51.8399 12.7576 50.7599Z" fill="#19A98C"/>
<rect x="12.96" y="45.3601" width="8.64" height="2.16001" rx="1" fill="#1CCF6E"/>
<path d="M16.74 46.4401C16.74 45.3601 17.82 45.3601 17.28 45.3601H14.04C14.04 45.3601 12.96 45.3601 12.96 46.4401C12.96 47.5201 14.04 47.5201 14.04 47.5201H17.28C17.82 47.5201 16.74 47.5201 16.74 46.4401Z" fill="#19A98C"/>
<rect x="91.8" y="55.0801" width="14.04" height="2.16" rx="1" fill="#1CCF6E"/>
<path d="M95.04 56.1601C95.04 55.0801 98.0775 55.0801 97.2 55.0801H92.88C92.88 55.0801 91.8 55.0801 91.8 56.1601C91.8 57.2401 92.88 57.2401 92.88 57.2401H96.12C96.9975 57.2401 95.04 57.2401 95.04 56.1601Z" fill="#19A98C"/>
<rect x="73.4399" y="33.48" width="14.04" height="2.16" rx="1" fill="#1CCF6E"/>
<path d="M76.6799 34.56C76.6799 33.48 79.7174 33.48 78.8399 33.48H74.5199C74.5199 33.48 73.4399 33.48 73.4399 34.56C73.4399 35.64 74.5199 35.64 74.5199 35.64H77.7599C78.6374 35.64 76.6799 35.64 76.6799 34.56Z" fill="#19A98C"/>
<rect x="11.8799" y="84.24" width="14.04" height="2.16001" rx="1" fill="#1CCF6E"/>
<path d="M15.1199 85.32C15.1199 84.24 18.1574 84.24 17.2799 84.24H12.9599C12.9599 84.24 11.8799 84.24 11.8799 85.32C11.8799 86.4 12.9599 86.4 12.9599 86.4H16.1999C17.0774 86.4 15.1199 86.4 15.1199 85.32Z" fill="#19A98C"/>
<path d="M53.46 48.6501C49.068 48.5971 32.203 49.6653 21.7358 68.2531C21.7358 68.2531 27.8168 92.9651 53.46 92.9651C79.1031 92.9651 85.184 68.2533 85.184 68.2533C74.717 49.6653 57.8519 48.5971 53.46 48.6501Z" fill="#2FDF84"/>
<path d="M53.4599 48.6501C52.8638 48.643 52.0366 48.6569 51.0282 48.732C57.4497 49.2104 71.2742 52.1879 80.3205 68.2533C80.3205 68.2533 74.6265 91.3879 51.0281 92.8878C51.8187 92.938 52.6285 92.9651 53.4598 92.9651C79.1029 92.9651 85.1839 68.2531 85.1839 68.2531C74.717 49.6653 57.8519 48.5973 53.4599 48.6501Z" fill="#00B871"/>
<path d="M67.177 85.1944H62.2837V54.5994H44.3312V85.1944H39.7427C34.5408 85.1944 30.324 89.4114 30.324 94.6133V105.977H76.596V94.6131C76.5958 89.4113 72.3789 85.1944 67.177 85.1944Z" fill="#5E5E5E"/>
<path d="M67.1771 85.1943H62.3137C67.5156 85.1943 71.7325 89.4114 71.7325 94.6132V105.977H76.5959V94.6131C76.5959 89.4114 72.379 85.1943 67.1771 85.1943Z" fill="#454545"/>
<path d="M62.2838 54.5994H57.4204V85.1944H62.2838V54.5994Z" fill="#454545"/>
<path d="M82.208 109.173V97.3812C82.208 90.9175 76.9682 85.6777 70.5044 85.6777L53.3304 97.4506L36.4152 85.6775C29.9515 85.6775 24.7117 90.9173 24.7117 97.381V109.173H82.208V109.173Z" fill="#2FDF84"/>
<path d="M48.4672 97.4506L50.9173 95.7709L36.4154 85.6775C35.0467 85.6775 33.7339 85.9147 32.5132 86.3464L48.4672 97.4506Z" fill="#00B871"/>
<path d="M70.5045 85.6777L69.5334 86.3434C74.0831 87.9478 77.3447 92.2827 77.3447 97.3813V109.174H82.2081V97.3813C82.2081 90.9175 76.9683 85.6777 70.5045 85.6777Z" fill="#00B871"/>
<path d="M53.4602 80.8871C65.5209 80.8871 75.298 70.4894 75.298 57.6631C75.298 44.8369 65.5209 34.4392 53.4602 34.4392C41.3995 34.4392 31.6223 44.8369 31.6223 57.6631C31.6223 70.4894 41.3995 80.8871 53.4602 80.8871Z" fill="#5E5E5E"/>
<path d="M53.46 34.4392C52.6379 34.4392 51.8269 34.4891 51.0283 34.5833C61.9443 35.8697 70.4345 45.7112 70.4345 57.6631C70.4345 69.6151 61.9443 79.4566 51.0283 80.743C51.8269 80.8371 52.6379 80.8871 53.46 80.8871C65.5207 80.8871 75.2979 70.4893 75.2979 57.6631C75.2977 44.8369 65.5207 34.4392 53.46 34.4392Z" fill="#454545"/>
<path d="M85.184 68.2535C85.0525 46.6217 70.9007 29.1357 53.46 29.1357C36.0193 29.1357 21.8675 46.6217 21.7358 68.2535C21.7358 68.2535 32.7563 56.0416 52.6877 56.0416C74.1637 56.0416 85.184 68.2535 85.184 68.2535Z" fill="#2FDF84"/>
<path d="M47.8243 56.0415C35.7996 56.0415 27.0201 60.486 21.9453 64.0124C21.8166 65.4056 21.7446 66.82 21.7358 68.2534C21.7358 68.2534 31.8954 56.9993 50.3447 56.1003C49.5206 56.0631 48.6817 56.0415 47.8243 56.0415Z" fill="#00B871"/>
<path d="M53.46 29.1357C52.6418 29.1357 51.8309 29.1743 51.0283 29.2499C66.2196 30.6805 78.4194 45.4045 80.118 64.082C83.4833 66.3698 85.184 68.2535 85.184 68.2535C85.0525 46.6217 70.9007 29.1357 53.46 29.1357Z" fill="#00B871"/>
<path d="M76.6801 110V98.4712C76.6801 95.8914 74.269 93.8 71.2949 93.8H36.7053C33.7312 93.8 31.3201 95.8914 31.3201 98.4712V110H76.6801Z" fill="#BFBFBF"/>
<path d="M71.0702 93.3582H66.2068C69.1619 93.3582 71.5576 95.4053 71.5576 97.9305V109.216H76.421V97.9305C76.421 95.4053 74.0253 93.3582 71.0702 93.3582Z" fill="#868686"/>
<g clip-path="url(#clip1)">
<path d="M54.965 103.467C55.1714 103.217 55.3165 102.878 55.3092 102.533C55.308 102.475 55.2551 102.432 55.1978 102.441C54.895 102.487 54.5565 102.677 54.3469 102.922C54.1538 103.146 53.9824 103.493 53.9953 103.836C53.9972 103.888 54.041 103.93 54.0929 103.928C54.4271 103.919 54.7571 103.719 54.965 103.467Z" fill="white"/>
<path d="M54.2561 103.836C54.2361 103.303 54.6383 102.681 55.2912 102.48C55.2707 102.452 55.2352 102.435 55.1978 102.441C54.895 102.487 54.5565 102.677 54.3469 102.922C54.1538 103.146 53.9824 103.493 53.9953 103.836C53.9972 103.888 54.041 103.93 54.0929 103.928C54.1577 103.926 54.2223 103.917 54.2859 103.902C54.2684 103.885 54.2571 103.862 54.2561 103.836Z" fill="#AAAAAA"/>
<path d="M56.578 107.157C56.3682 107.051 55.7891 106.687 55.782 105.878C55.7758 105.217 56.215 104.832 56.4018 104.697C56.4462 104.665 56.4559 104.603 56.4222 104.56C56.267 104.362 56.0855 104.235 55.9111 104.153C55.9112 104.153 55.9114 104.153 55.9115 104.153C55.8889 104.142 55.8502 104.125 55.8193 104.113C54.9419 103.768 54.389 104.297 54.0541 104.297C53.7977 104.297 53.402 104.007 52.9827 104.015C52.4318 104.023 51.9244 104.336 51.6403 104.829C51.2044 105.585 51.3482 106.619 51.6877 107.425C51.6877 107.425 51.6877 107.425 51.6877 107.425C51.6964 107.446 51.7103 107.478 51.7218 107.504C51.7218 107.504 51.7218 107.504 51.7218 107.504C51.8202 107.725 51.9329 107.927 52.0515 108.098C52.324 108.492 52.649 108.936 53.076 108.92C53.4871 108.903 53.6425 108.654 54.1392 108.654C54.6356 108.654 54.7756 108.92 55.2103 108.912C55.6527 108.903 55.9328 108.51 56.2034 108.114C56.4416 107.766 56.573 107.427 56.6256 107.274C56.6413 107.229 56.6211 107.179 56.578 107.157Z" fill="white"/>
<path d="M52.3125 108.099C52.1939 107.927 52.0812 107.725 51.9829 107.504C51.9828 107.504 51.9828 107.504 51.9828 107.504C51.9713 107.478 51.9576 107.446 51.9488 107.426C51.9488 107.426 51.9488 107.426 51.9488 107.426C51.6113 106.625 51.4639 105.588 51.9013 104.829C52.1637 104.373 52.6166 104.072 53.1183 104.023C53.0735 104.017 53.0284 104.014 52.983 104.015C52.4321 104.023 51.9246 104.336 51.6405 104.829C51.2047 105.585 51.3484 106.62 51.688 107.426C51.688 107.426 51.688 107.426 51.688 107.426C51.6967 107.446 51.7105 107.478 51.7221 107.504C51.7221 107.504 51.7221 107.504 51.7221 107.504C51.8205 107.725 51.9331 107.927 52.0517 108.099C52.3242 108.492 52.6492 108.936 53.0763 108.92C53.1183 108.918 53.1575 108.914 53.1948 108.908C52.8366 108.835 52.5539 108.447 52.3125 108.099Z" fill="#AAAAAA"/>
</g>
<path d="M86.3989 68.2612C86.3989 68.2561 86.4 68.2511 86.4 68.2461C86.3347 57.5048 82.9104 47.4085 76.7577 39.817C70.5396 32.1451 62.2657 27.9199 53.46 27.9199C48.389 27.9199 43.5258 29.3013 39.0056 32.0253C38.4304 32.3719 38.2453 33.1192 38.5917 33.6942C38.9383 34.2694 39.6857 34.4545 40.2607 34.1081C44.3966 31.6154 48.8376 30.3516 53.46 30.3516C61.5182 30.3516 69.1211 34.2569 74.8685 41.3482C80.1232 47.8317 83.2693 56.2762 83.8654 65.376C82.4484 64.1946 80.3547 62.6419 77.5845 61.0872C72.495 58.2306 64.0444 54.8256 52.6877 54.8256C42.1206 54.8256 34.0422 58.2358 29.126 61.0966C26.4765 62.6383 24.4462 64.1766 23.0573 65.3525C23.8374 53.6594 28.864 43.0445 36.8096 36.5459C37.3293 36.1207 37.406 35.3547 36.981 34.835C36.5557 34.3153 35.7898 34.2384 35.27 34.6636C26.1163 42.1507 20.6024 54.7048 20.52 68.2461C20.5184 68.5063 20.6011 68.7522 20.7449 68.9553C20.7361 69.0972 20.7511 69.2429 20.7953 69.3867C21.5002 71.6774 24.2802 79.4799 30.9411 85.6824C26.5469 87.7469 23.4959 92.2135 23.4959 97.3811V109.173C23.4959 109.845 24.0403 110.389 24.7118 110.389H82.2081C82.8796 110.389 83.424 109.845 83.424 109.173V97.3811C83.424 92.2138 80.3735 87.7476 75.9798 85.6829C83.8831 78.3318 86.2647 68.9497 86.3645 68.5439C86.3725 68.5116 86.378 68.4794 86.3832 68.4471C86.3841 68.4408 86.3859 68.4346 86.3867 68.4283C86.3952 68.3724 86.3984 68.3166 86.3989 68.2612ZM73.7152 61.8271C73.7129 61.8381 73.7095 61.8488 73.7076 61.86C71.8407 72.1806 63.3254 79.6713 53.46 79.6713C48.4832 79.6713 43.6774 77.753 39.9277 74.2697C36.4043 70.9967 34.0313 66.5611 33.1856 61.7029C38.1021 59.3096 44.6578 57.2576 52.6879 57.2576C61.727 57.2574 68.8179 59.5126 73.7152 61.8271ZM62.2838 86.4102H67.1772C67.2069 86.4102 67.2365 86.4116 67.2662 86.4119L58.8508 92.1423H47.832L39.6005 86.4132C39.648 86.4124 39.6952 86.4102 39.7429 86.4102H44.3315C45.0029 86.4102 45.5473 85.8658 45.5473 85.1943V80.6185C48.0614 81.592 50.7369 82.1028 53.4602 82.1028C56.1114 82.1028 58.6744 81.6214 61.0682 80.7327V85.1943C61.068 85.8658 61.6124 86.4102 62.2838 86.4102ZM33.0937 84.3565C26.5148 78.5008 23.796 70.8707 23.1195 68.6718C23.1124 68.6486 23.1033 68.6266 23.0949 68.604C24.1016 67.6199 26.7622 65.2212 30.9343 62.8805C31.979 67.9621 34.5455 72.5889 38.2725 76.0512C39.7531 77.4265 41.3822 78.5829 43.1155 79.5055V83.9785H39.7427C38.6473 83.9785 37.5714 84.1446 36.5376 84.4713C36.4969 84.4672 36.4564 84.4619 36.4152 84.4619C35.382 84.4619 34.3782 84.5872 33.4146 84.8174C33.3472 84.6461 33.2407 84.4872 33.0937 84.3565ZM25.9276 97.3813C25.9276 91.7229 30.4319 87.0967 36.0431 86.9001L43.5751 92.1423H36.7012C33.0804 92.1423 30.1345 94.7389 30.1345 97.9305V104.352C30.1345 105.024 30.6788 105.568 31.3503 105.568C32.0218 105.568 32.5661 105.024 32.5661 104.352V97.9305C32.5661 96.0797 34.421 94.574 36.7012 94.574H71.07C73.35 94.574 75.2049 96.0797 75.2049 97.9305V107.922C75.2049 107.934 75.2063 107.946 75.2066 107.958L65.88 108.92L64.26 109.173L61.56 110.54H60.48H59.4H58.86L58.1027 110.389H57.24H56.4146H55.62H54.54H53.46H52.38H51.069H49.68L47.52 110L25.9276 107.958V97.3813ZM80.9923 97.3813V107.958H77.6349C77.6353 107.946 77.6367 107.934 77.6367 107.922V97.9304C77.6367 94.7387 74.691 92.1421 71.0702 92.1421H63.1712L70.8701 86.8997C76.4847 87.0928 80.9923 91.7205 80.9923 97.3813ZM73.7424 84.4308C73.6196 84.5394 73.5242 84.6675 73.4563 84.8061C72.5076 84.5833 71.5204 84.4619 70.5047 84.4619C70.4624 84.4619 70.4206 84.4669 70.3788 84.4713C69.3459 84.1455 68.2702 83.9785 67.1774 83.9785H63.4998V79.6609C69.6969 76.4774 74.4113 70.4255 75.9671 62.9721C76.0785 63.0329 76.1902 63.0938 76.2983 63.1541C80.3095 65.3919 82.8423 67.6528 83.8208 68.6023C83.1351 70.8454 80.4045 78.5453 73.7424 84.4308Z" fill="#18191B"/>
<path d="M53.3749 59C50.6363 59 48.1796 60.629 47.1165 63.1498C46.7996 63.9006 47.1515 64.7658 47.9022 65.0824C48.653 65.3994 49.5186 65.0474 49.8352 64.2967C50.4361 62.8717 51.8258 61.9507 53.3749 61.9507C55.495 61.9507 57.2193 63.6747 57.2193 65.7936C57.2193 67.9651 56.1043 68.7608 54.5609 69.8619C53.0007 70.975 51.0589 72.3605 51.0589 75.3903V78.2062C51.0589 79.0211 51.7193 79.6815 52.5342 79.6815C53.3488 79.6815 54.0096 79.0211 54.0096 78.2062V75.3903C54.0096 73.9472 54.7861 73.326 56.2745 72.264C57.9185 71.091 60.17 69.4847 60.17 65.7936C60.17 62.0475 57.1217 59 53.3749 59V59Z" fill="white"/>
<path d="M54.0809 82.4749C54.0809 83.3148 53.4001 83.9956 52.5602 83.9956C51.7204 83.9956 51.0396 83.3148 51.0396 82.4749C51.0396 81.6347 51.7204 80.9539 52.5602 80.9539C53.4001 80.9539 54.0809 81.6347 54.0809 82.4749V82.4749Z" fill="white"/>
<rect x="77.76" y="89.6399" width="8.64" height="2.16001" rx="1" fill="#021F39"/>
<path d="M81.54 90.7199C81.54 89.6399 82.62 89.6399 82.08 89.6399H78.84C78.84 89.6399 77.76 89.6399 77.76 90.7199C77.76 91.7999 78.84 91.7999 78.84 91.7999H82.08C82.62 91.7999 81.54 91.7999 81.54 90.7199Z" fill="#041B30"/>
<rect x="19.4399" y="49.6799" width="9.72" height="2.16" rx="1" fill="#021F39"/>
<path d="M23.6924 50.7599C23.6924 49.6799 24.9074 49.6799 24.2999 49.6799H20.6549C20.6549 49.6799 19.4399 49.6799 19.4399 50.7599C19.4399 51.8399 20.6549 51.8399 20.6549 51.8399H24.2999C24.9074 51.8399 23.6924 51.8399 23.6924 50.7599Z" fill="#021F39"/>
<rect x="22.6799" y="45.3601" width="9.72" height="2.16001" rx="1" fill="#021F39"/>
<path d="M26.9324 46.4401C26.9324 45.3601 28.1474 45.3601 27.5399 45.3601H23.8949C23.8949 45.3601 22.6799 45.3601 22.6799 46.4401C22.6799 47.5201 23.8949 47.5201 23.8949 47.5201H27.5399C28.1474 47.5201 26.9324 47.5201 26.9324 46.4401Z" fill="#021F39"/>
<rect x="87.48" y="89.6399" width="6.47999" height="2.16001" rx="1" fill="#1CCF6E"/>
<path d="M90.315 90.7199C90.315 89.6399 91.125 89.6399 90.72 89.6399H88.29C88.29 89.6399 87.48 89.6399 87.48 90.7199C87.48 91.7999 88.29 91.7999 88.29 91.7999H90.72C91.125 91.7999 90.315 91.7999 90.315 90.7199Z" fill="#19A98C"/>
<circle cx="32" cy="43" r="1" fill="#021F39"/>
</g>
<defs>
<clipPath id="clip0">
<rect width="108" height="108" fill="white"/>
</clipPath>
<clipPath id="clip1">
<rect width="6.48" height="6.48" fill="white" transform="translate(50.76 102.44)"/>
</clipPath>
</defs>
</svg>
