<svg width="50" height="50" viewBox="0 0 50 50" fill="none" xmlns="http://www.w3.org/2000/svg">
<g clip-path="url(#clip0)">
<path d="M46.148 31.4097C45.4602 31.4097 44.9028 31.9671 44.9028 32.6549V43.7115C44.9003 45.7739 43.2295 47.4453 41.167 47.4472H6.22629C4.16383 47.4453 2.49295 45.7739 2.49052 43.7115V11.2613C2.49295 9.19929 4.16383 7.52792 6.22629 7.52549H17.2828C17.9706 7.52549 18.5281 6.96804 18.5281 6.28023C18.5281 5.59291 17.9706 5.03497 17.2828 5.03497H6.22629C2.78919 5.03886 0.00389143 7.82416 0 11.2613V43.7119C0.00389143 47.1491 2.78919 49.9343 6.22629 49.9382H41.167C44.6041 49.9343 47.3894 47.1491 47.3933 43.7119V32.6549C47.3933 31.9671 46.8358 31.4097 46.148 31.4097Z" fill="#F4F4F4"/>
<path d="M46.9001 1.83091C44.7116 -0.357536 41.1636 -0.357536 38.9751 1.83091L16.7589 24.0471C16.6067 24.1994 16.4967 24.3881 16.4393 24.5953L13.5179 35.1426C13.3977 35.575 13.5198 36.0381 13.837 36.3557C14.1546 36.6729 14.6177 36.795 15.0501 36.6753L25.5974 33.7533C25.8046 33.6959 25.9933 33.586 26.1456 33.4337L48.3613 11.217C50.5463 9.02714 50.5463 5.48205 48.3613 3.29214L46.9001 1.83091ZM19.4722 24.8565L37.6545 6.6738L43.5184 12.5377L25.3357 30.7204L19.4722 24.8565ZM18.3009 27.207L22.9857 31.8922L16.5055 33.6877L18.3009 27.207ZM46.6004 9.45617L45.2798 10.7768L39.4154 4.91244L40.7365 3.59178C41.9521 2.3762 43.9231 2.3762 45.1387 3.59178L46.6004 5.05302C47.8141 6.27006 47.8141 8.23962 46.6004 9.45617Z" fill="#F4F4F4"/>
</g>
<defs>
<clipPath id="clip0">
<rect width="50" height="50" fill="white"/>
</clipPath>
</defs>
</svg>
