<svg width="50" height="50" viewBox="0 0 50 50" fill="none" xmlns="http://www.w3.org/2000/svg">
<g clip-path="url(#clip0)">
<path d="M46.6667 10C44.8283 10 43.3334 11.495 43.3334 13.3333C43.3334 15.1716 44.8284 16.6666 46.6667 16.6666C48.505 16.6666 50 15.1717 50 13.3333C50 11.495 48.505 10 46.6667 10ZM46.6667 15C45.7475 15 45 14.2525 45 13.3333C45 12.4142 45.7474 11.6666 46.6667 11.6666C47.5859 11.6666 48.3334 12.4141 48.3334 13.3333C48.3333 14.2525 47.5858 15 46.6667 15Z" fill="#F4F4F4"/>
<path d="M3.3333 37.5C1.49502 37.5 0 38.995 0 40.8333C0 42.6716 1.49502 44.1666 3.3333 44.1666C5.17168 44.1666 6.6666 42.6716 6.6666 40.8333C6.6666 38.995 5.17168 37.5 3.3333 37.5ZM3.3333 42.5C2.41416 42.5 1.6666 41.7525 1.6666 40.8333C1.6666 39.9141 2.41406 39.1666 3.3333 39.1666C4.25244 39.1666 5 39.9141 5 40.8333C5 41.7525 4.25254 42.5 3.3333 42.5Z" fill="#F4F4F4"/>
<path d="M45.0509 11.0533L37.8617 7.58248C37.4467 7.3816 36.9492 7.5566 36.7492 7.97086C36.5492 8.38502 36.7233 8.88336 37.1376 9.08336L44.3267 12.5542C44.4434 12.6108 44.5668 12.6375 44.6884 12.6375C44.9983 12.6375 45.2959 12.4641 45.4391 12.1658C45.6391 11.7516 45.465 11.2533 45.0509 11.0533Z" fill="#F4F4F4"/>
<path d="M37.5 43.3333C35.6616 43.3333 34.1667 44.8283 34.1667 46.6666C34.1667 48.5049 35.6616 50 37.5 50C39.3384 50 40.8333 48.505 40.8333 46.6667C40.8333 44.8284 39.3384 43.3333 37.5 43.3333ZM37.5 48.3333C36.5808 48.3333 35.8333 47.5858 35.8333 46.6666C35.8333 45.7473 36.5808 45 37.5 45C38.4191 45 39.1667 45.7474 39.1667 46.6667C39.1667 47.5859 38.4191 48.3333 37.5 48.3333Z" fill="#F4F4F4"/>
<path d="M35.8842 44.3867L28.695 40.9159C28.28 40.715 27.7825 40.8893 27.5825 41.3043C27.3825 41.7185 27.5566 42.2168 27.9709 42.4168L35.1601 45.8876C35.2768 45.9442 35.4001 45.9709 35.5217 45.9709C35.8316 45.9709 36.1292 45.7976 36.2726 45.4992C36.4725 45.085 36.2983 44.5867 35.8842 44.3867Z" fill="#F4F4F4"/>
<path d="M25 22.5C23.1616 22.5 21.6667 23.995 21.6667 25.8333C21.6667 27.6717 23.1617 29.1666 25 29.1666C26.8384 29.1666 28.3333 27.6716 28.3333 25.8333C28.3333 23.995 26.8384 22.5 25 22.5ZM25 27.5C24.0808 27.5 23.3333 26.7525 23.3333 25.8333C23.3333 24.9142 24.0807 24.1666 25 24.1666C25.9191 24.1666 26.6667 24.9141 26.6667 25.8333C26.6667 26.7525 25.9191 27.5 25 27.5Z" fill="#F4F4F4"/>
<path d="M23.535 23.6467L18.0126 19.3425C17.6492 19.0616 17.1259 19.1241 16.8425 19.4875C16.56 19.8509 16.6242 20.3741 16.9876 20.6575L22.51 24.9617C22.6626 25.0801 22.8425 25.1376 23.0217 25.1376C23.2701 25.1376 23.5151 25.0276 23.68 24.8168C23.9626 24.4533 23.8984 23.93 23.535 23.6467Z" fill="#F4F4F4"/>
<path d="M40 21.6667C34.9458 21.6667 30.8333 25.7792 30.8333 30.8334C30.8333 35.8876 34.9458 40.0001 40 40.0001C45.0542 40.0001 49.1667 35.8876 49.1667 30.8334C49.1667 25.7792 45.0542 21.6667 40 21.6667ZM40 38.3333C35.8642 38.3333 32.5 34.9692 32.5 30.8333C32.5 26.6975 35.8642 23.3333 40 23.3333C44.1359 23.3333 47.5 26.6975 47.5 30.8333C47.5 34.9692 44.1359 38.3333 40 38.3333Z" fill="#F4F4F4"/>
<path d="M40 25C38.1616 25 36.6667 26.495 36.6667 28.3333C36.6667 30.1717 38.1617 31.6666 40 31.6666C41.8384 31.6666 43.3333 30.1716 43.3333 28.3333C43.3333 26.495 41.8384 25 40 25ZM40 30C39.0808 30 38.3333 29.2525 38.3333 28.3333C38.3333 27.4142 39.0807 26.6666 40 26.6666C40.9191 26.6666 41.6667 27.4141 41.6667 28.3333C41.6667 29.2525 40.9191 30 40 30Z" fill="#F4F4F4"/>
<path d="M42.4175 33.3333H37.5825C36.1584 33.3333 35 34.4609 35 35.8458V38.0425C35 38.34 35.1583 38.615 35.4158 38.7642C36.8125 39.5725 38.3975 40 40 40C41.6025 40 43.1875 39.5725 44.5842 38.7642C44.8417 38.6158 45 38.34 45 38.0434V35.8467C45 34.4609 43.8417 33.3333 42.4175 33.3333ZM43.3333 37.5458C41.2592 38.5791 38.7408 38.5791 36.6666 37.5458V35.8467C36.6666 35.38 37.0774 35 37.5824 35H42.4174C42.9224 35 43.3332 35.38 43.3332 35.8467V37.5458H43.3333Z" fill="#F4F4F4"/>
<path d="M20 31.6667C14.9458 31.6667 10.8333 35.7792 10.8333 40.8334C10.8333 45.8876 14.9458 50 20 50C25.0542 50 29.1667 45.8875 29.1667 40.8333C29.1667 35.7791 25.0542 31.6667 20 31.6667ZM20 48.3333C15.8642 48.3333 12.5 44.9692 12.5 40.8333C12.5 36.6975 15.8642 33.3334 20 33.3334C24.1358 33.3334 27.5 36.6975 27.5 40.8333C27.5 44.9692 24.1358 48.3333 20 48.3333Z" fill="#F4F4F4"/>
<path d="M20 35C18.1616 35 16.6667 36.495 16.6667 38.3333C16.6667 40.1717 18.1617 41.6666 20 41.6666C21.8383 41.6666 23.3333 40.1716 23.3333 38.3333C23.3333 36.495 21.8384 35 20 35ZM20 40C19.0808 40 18.3333 39.2525 18.3333 38.3333C18.3333 37.4142 19.0807 36.6666 20 36.6666C20.9191 36.6666 21.6667 37.4141 21.6667 38.3333C21.6667 39.2525 20.9191 40 20 40Z" fill="#F4F4F4"/>
<path d="M22.4175 43.3333H17.5825C16.1584 43.3333 15 44.4608 15 45.8458V48.0424C15 48.3399 15.1583 48.6149 15.4158 48.7641C16.8125 49.5724 18.3975 50 20 50C21.6025 50 23.1875 49.5724 24.5842 48.7641C24.8417 48.6158 25 48.34 25 48.0433V45.8466C25 44.4608 23.8417 43.3333 22.4175 43.3333ZM23.3333 47.5458C21.2591 48.5791 18.7408 48.5791 16.6666 47.5458V45.8466C16.6666 45.3799 17.0774 45 17.5824 45H22.4174C22.9224 45 23.3332 45.3799 23.3332 45.8466V47.5458H23.3333Z" fill="#F4F4F4"/>
<path d="M9.1667 10.8333C4.1125 10.8333 0 14.9458 0 20C0 25.0542 4.1125 29.1667 9.1667 29.1667C14.2209 29.1667 18.3334 25.0542 18.3334 20C18.3333 14.9458 14.2208 10.8333 9.1667 10.8333ZM9.1667 27.5C5.03086 27.5 1.6667 24.1358 1.6667 20C1.6667 15.8642 5.03086 12.5 9.1667 12.5C13.3025 12.5 16.6667 15.8642 16.6667 20C16.6667 24.1358 13.3025 27.5 9.1667 27.5Z" fill="#F4F4F4"/>
<path d="M9.16668 14.1667C7.3283 14.1667 5.83337 15.6617 5.83337 17.5C5.83337 19.3383 7.32839 20.8333 9.16668 20.8333C11.0051 20.8333 12.5 19.3383 12.5 17.5C12.5 15.6617 11.005 14.1667 9.16668 14.1667ZM9.16668 19.1667C8.24754 19.1667 7.49998 18.4192 7.49998 17.5C7.49998 16.5807 8.24744 15.8333 9.16668 15.8333C10.0858 15.8333 10.8334 16.5807 10.8334 17.5C10.8334 18.4192 10.0858 19.1667 9.16668 19.1667Z" fill="#F4F4F4"/>
<path d="M11.5842 22.5H6.74921C5.32509 22.5 4.16669 23.6275 4.16669 25.0125V27.2092C4.16669 27.5066 4.32499 27.7816 4.58251 27.9309C5.97919 28.7392 7.56415 29.1667 9.16669 29.1667C10.7692 29.1667 12.3542 28.7392 13.7509 27.9309C14.0084 27.7825 14.1667 27.5066 14.1667 27.2101V25.0134C14.1667 23.6275 13.0083 22.5 11.5842 22.5ZM12.5 26.7125C10.4259 27.7458 7.90751 27.7458 5.83329 26.7125V25.0134C5.83329 24.5467 6.24413 24.1667 6.74911 24.1667H11.5841C12.0891 24.1667 12.4999 24.5467 12.4999 25.0134V26.7125H12.5Z" fill="#F4F4F4"/>
<path d="M29.1667 0C24.1125 0 20 4.1125 20 9.1667C20 14.2209 24.1125 18.3334 29.1667 18.3334C34.2209 18.3334 38.3334 14.2209 38.3334 9.1667C38.3333 4.1125 34.2208 0 29.1667 0ZM29.1667 16.6667C25.0309 16.6667 21.6667 13.3025 21.6667 9.1667C21.6667 5.03086 25.0309 1.6667 29.1667 1.6667C33.3025 1.6667 36.6667 5.03086 36.6667 9.1667C36.6667 13.3025 33.3025 16.6667 29.1667 16.6667Z" fill="#F4F4F4"/>
<path d="M29.1667 3.33331C27.3283 3.33331 25.8334 4.82833 25.8334 6.66661C25.8334 8.50489 27.3284 9.99992 29.1667 9.99992C31.005 9.99992 32.5 8.50499 32.5 6.66671C32.5 4.82843 31.005 3.33331 29.1667 3.33331ZM29.1667 8.33331C28.2475 8.33331 27.5 7.58585 27.5 6.66661C27.5 5.74747 28.2474 4.99991 29.1667 4.99991C30.0859 4.99991 30.8334 5.74738 30.8334 6.66661C30.8333 7.58585 30.0858 8.33331 29.1667 8.33331Z" fill="#F4F4F4"/>
<path d="M31.5842 11.6667H26.7492C25.3251 11.6667 24.1667 12.7943 24.1667 14.1792V16.3759C24.1667 16.6734 24.325 16.9484 24.5825 17.0976C25.9792 17.9059 27.5641 18.3334 29.1667 18.3334C30.7692 18.3334 32.3542 17.9059 33.7509 17.0976C34.0084 16.9493 34.1667 16.6734 34.1667 16.3768V14.1801C34.1667 12.7942 33.0083 11.6667 31.5842 11.6667ZM32.5 15.8792C30.4259 16.9125 27.9075 16.9125 25.8333 15.8792V14.1801C25.8333 13.7134 26.2441 13.3334 26.7491 13.3334H31.5841C32.089 13.3334 32.4999 13.7134 32.4999 14.1801V15.8792H32.5Z" fill="#F4F4F4"/>
<path d="M21.4675 8.62416C21.1683 8.27582 20.6425 8.23412 20.2925 8.53334L14.5174 13.475C14.1674 13.7742 14.1266 14.3 14.4258 14.65C14.5908 14.8425 14.8241 14.9417 15.0591 14.9417C15.2508 14.9417 15.4432 14.8759 15.6008 14.7409L21.3758 9.79916C21.7259 9.50004 21.7667 8.97416 21.4675 8.62416Z" fill="#F4F4F4"/>
<path d="M39.8333 22.0009L34.8333 15.3342C34.5574 14.965 34.035 14.8925 33.6666 15.1675C33.2983 15.4433 33.2241 15.9658 33.4999 16.3333L38.4999 23C38.6641 23.2183 38.9141 23.3333 39.1674 23.3333C39.3407 23.3333 39.5166 23.2791 39.6666 23.1666C40.035 22.8908 40.1092 22.3683 39.8333 22.0009Z" fill="#F4F4F4"/>
<path d="M32.9941 33.5892C32.7183 33.2208 32.1958 33.1467 31.8274 33.4225L27.1725 36.9133C26.8041 37.1892 26.73 37.7116 27.0058 38.0791C27.1699 38.2975 27.4199 38.4124 27.6733 38.4124C27.8474 38.4124 28.0224 38.3574 28.1725 38.2457L32.8275 34.7549C33.1958 34.4792 33.27 33.9566 32.9941 33.5892Z" fill="#F4F4F4"/>
<path d="M11.6667 40H5.8333C5.37334 40 5 40.3725 5 40.8333C5 41.2941 5.37334 41.6666 5.8333 41.6666H11.6666C12.1266 41.6666 12.4999 41.2941 12.4999 40.8333C12.4999 40.3725 12.1267 40 11.6667 40Z" fill="#F4F4F4"/>
<path d="M9.16665 0C7.32827 0 5.83325 1.49502 5.83325 3.3333C5.83325 5.17168 7.32827 6.6666 9.16655 6.6666C11.0049 6.6666 12.4999 5.17158 12.4999 3.3333C12.5 1.49502 11.0049 0 9.16665 0ZM9.16665 5C8.24751 5 7.49995 4.25254 7.49995 3.3333C7.49995 2.41416 8.24741 1.6666 9.16665 1.6666C10.0858 1.6666 10.8333 2.41406 10.8333 3.3333C10.8333 4.25254 10.0858 5 9.16665 5Z" fill="#F4F4F4"/>
<path d="M9.16674 5C8.70677 5 8.33344 5.37246 8.33344 5.8333V11.6666C8.33344 12.1274 8.70677 12.4999 9.16674 12.4999C9.6267 12.4999 10 12.1274 10 11.6666V5.8333C10 5.37246 9.6267 5 9.16674 5Z" fill="#F4F4F4"/>
</g>
<defs>
<clipPath id="clip0">
<rect width="50" height="50" fill="white"/>
</clipPath>
</defs>
</svg>
