<svg width="50" height="50" viewBox="0 0 50 50" fill="none" xmlns="http://www.w3.org/2000/svg">
<g clip-path="url(#clip0)">
<path d="M9.86326 24.7158C4.4247 24.7158 0 29.1405 0 34.5791C0 36.8311 0.778612 39.0318 2.19316 40.7798C2.1957 40.7832 2.19834 40.7866 2.20097 40.7899L2.95195 41.7524C3.28359 42.1775 3.89736 42.2534 4.32255 41.9216C4.74775 41.5898 4.82353 40.9762 4.49169 40.5509L3.76083 39.6141C3.75048 39.5999 3.73964 39.5859 3.72851 39.5722C2.58369 38.1676 1.95312 36.3942 1.95312 34.5791C1.95312 30.2174 5.50165 26.6689 9.86326 26.6689C14.2249 26.6689 17.7734 30.2174 17.7734 34.5791C17.7734 36.4139 17.1311 38.2017 15.9647 39.6135C15.9398 39.6435 15.9171 39.6748 15.8964 39.707L9.86346 47.4361L9.42361 46.8722C9.09178 46.4471 8.47821 46.3712 8.05291 46.703C7.62772 47.0348 7.55194 47.6484 7.88368 48.0737L9.09334 49.6242C9.2785 49.8613 9.56248 50 9.86326 50.0001C9.86326 50.0001 9.86326 50.0001 9.86336 50.0001C10.1641 50.0001 10.4481 49.8615 10.6332 49.6244L17.4926 40.8364C17.5064 40.8189 17.5193 40.801 17.5316 40.7828C18.9476 39.0337 19.7265 36.8346 19.7265 34.5791C19.7265 29.1404 15.3018 24.7158 9.86326 24.7158Z" fill="#F4F4F4"/>
<path d="M7.0488 43.8283L7.01697 43.7875C6.68503 43.3625 6.07117 43.2872 5.64627 43.6193C5.22117 43.9513 5.14588 44.5651 5.47791 44.9901L5.50974 45.0308C5.70232 45.2773 5.98962 45.4062 6.27996 45.4062C6.49011 45.4062 6.70203 45.3386 6.88044 45.1991C7.30554 44.867 7.38083 44.2533 7.0488 43.8283Z" fill="#F4F4F4"/>
<path d="M9.86327 29.0568C6.74013 29.0568 4.19922 31.5977 4.19922 34.7208C4.19922 37.844 6.74013 40.3849 9.86327 40.3849C12.9864 40.3849 15.5273 37.844 15.5273 34.7208C15.5273 31.5977 12.9864 29.0568 9.86327 29.0568ZM9.86327 38.4317C7.81708 38.4317 6.15234 36.767 6.15234 34.7208C6.15234 32.6746 7.81708 31.0099 9.86327 31.0099C11.9095 31.0099 13.5742 32.6746 13.5742 34.7208C13.5742 36.767 11.9095 38.4317 9.86327 38.4317Z" fill="#F4F4F4"/>
<path d="M49.5117 5.54353L40.1367 0.130847C39.8346 -0.0436645 39.4623 -0.0435668 39.1602 0.130847C38.858 0.305261 38.6719 0.627623 38.6719 0.976548V17.6757H37.0546C36.5154 17.6757 36.0781 18.1129 36.0781 18.6523C36.0781 19.1917 36.5154 19.6289 37.0546 19.6289H42.2422C42.7815 19.6289 43.2188 19.1917 43.2188 18.6523C43.2188 18.1129 42.7815 17.6757 42.2422 17.6757H40.6249V12.3657L49.5116 7.23494C49.8138 7.06052 49.9999 6.73816 49.9999 6.38923C49.9999 6.04031 49.8139 5.71795 49.5117 5.54353ZM40.625 10.1104V8.6445V2.66805L47.0703 6.38923L40.625 10.1104Z" fill="#F4F4F4"/>
<path d="M31.0873 9.02826H30.8432C30.3039 9.02826 29.8666 9.46547 29.8666 10.0048C29.8666 10.5442 30.3039 10.9814 30.8432 10.9814H31.0873C31.6266 10.9814 32.0639 10.5442 32.0639 10.0048C32.0639 9.46547 31.6265 9.02826 31.0873 9.02826Z" fill="#F4F4F4"/>
<path d="M20.6077 23.7453C20.471 23.704 20.334 23.6575 20.2004 23.6072C19.6953 23.417 19.1324 23.6723 18.9423 24.177C18.7523 24.6817 19.0073 25.2449 19.5121 25.4351C19.6859 25.5005 19.8643 25.5611 20.0421 25.6149C20.1365 25.6434 20.2316 25.657 20.3252 25.657C20.7445 25.657 21.1321 25.3848 21.2596 24.9628C21.4159 24.4466 21.1239 23.9015 20.6077 23.7453Z" fill="#F4F4F4"/>
<path d="M22.4087 9.94235C22.3334 9.40837 21.8391 9.03649 21.3051 9.11188C21.1214 9.13786 20.9361 9.17028 20.7542 9.20827C20.2263 9.31881 19.888 9.83629 19.9984 10.3642C20.0948 10.8247 20.5008 11.1409 20.9533 11.1409C21.0196 11.1409 21.0869 11.1341 21.1544 11.12C21.2943 11.0907 21.4369 11.0657 21.5781 11.0458C22.1122 10.9705 22.4839 10.4763 22.4087 9.94235Z" fill="#F4F4F4"/>
<path d="M17.1778 21.2733C17.0948 21.1565 17.0148 21.0356 16.9401 20.9141C16.6576 20.4548 16.0557 20.3116 15.5968 20.5941C15.1374 20.8767 14.994 21.4781 15.2766 21.9375C15.3738 22.0954 15.4777 22.2525 15.5854 22.4041C15.7759 22.6723 16.0768 22.8153 16.3825 22.8153C16.578 22.8153 16.7755 22.7567 16.947 22.6349C17.3868 22.3226 17.4901 21.713 17.1778 21.2733Z" fill="#F4F4F4"/>
<path d="M17.7922 11.5851C17.4049 11.21 16.7866 11.2197 16.4113 11.6072C16.2815 11.7412 16.1551 11.8806 16.0355 12.0215C15.6868 12.4328 15.7375 13.0491 16.1488 13.3979C16.3324 13.5536 16.5567 13.6297 16.78 13.6297C17.0569 13.6297 17.332 13.5125 17.5253 13.2847C17.617 13.1765 17.7143 13.0693 17.8142 12.9661C18.1895 12.5787 18.1797 11.9604 17.7922 11.5851Z" fill="#F4F4F4"/>
<path d="M15.1505 15.7129C14.6165 15.6555 14.1327 16.0425 14.0746 16.5786C14.0545 16.7633 14.0404 16.9506 14.0325 17.1356C14.0096 17.6745 14.4278 18.1299 14.9667 18.1529C14.9809 18.1535 14.995 18.1537 15.009 18.1537C15.5291 18.1537 15.9617 17.7434 15.9839 17.2187C15.99 17.0761 16.0009 16.9315 16.0164 16.789C16.0744 16.2528 15.6868 15.771 15.1505 15.7129Z" fill="#F4F4F4"/>
<path d="M26.3879 9.02826H25.8929C25.3537 9.02826 24.9164 9.46547 24.9164 10.0048C24.9164 10.5442 25.3537 10.9814 25.8929 10.9814H26.3879C26.9272 10.9814 27.3645 10.5442 27.3645 10.0048C27.3645 9.46547 26.9272 9.02826 26.3879 9.02826Z" fill="#F4F4F4"/>
<path d="M24.9999 24.0235H24.7558C24.2166 24.0235 23.7793 24.4607 23.7793 25.0001C23.7793 25.5394 24.2166 25.9766 24.7558 25.9766H24.9999C25.5392 25.9766 25.9765 25.5393 25.9765 25.0001C25.9765 24.4607 25.5392 24.0235 24.9999 24.0235Z" fill="#F4F4F4"/>
<path d="M21.4355 39.0186H21.1914C20.6521 39.0186 20.2148 39.4558 20.2148 39.9951C20.2148 40.5345 20.6521 40.9717 21.1914 40.9717H21.4355C21.9748 40.9717 22.4121 40.5345 22.4121 39.9951C22.4121 39.4558 21.9748 39.0186 21.4355 39.0186Z" fill="#F4F4F4"/>
<path d="M31.094 39.0186H30.6111C30.0718 39.0186 29.6345 39.4558 29.6345 39.9951C29.6345 40.5345 30.0718 40.9717 30.6111 40.9717H31.094C31.6332 40.9717 32.0706 40.5345 32.0706 39.9951C32.0706 39.4558 31.6333 39.0186 31.094 39.0186Z" fill="#F4F4F4"/>
<path d="M39.7193 35.1582C39.2433 34.9041 38.6519 35.0842 38.3982 35.56C38.3323 35.6834 38.2618 35.8057 38.1888 35.9239C37.9049 36.3825 38.0466 36.9843 38.5052 37.2682C38.6654 37.3673 38.8428 37.4146 39.0182 37.4146C39.3452 37.4146 39.6648 37.2503 39.8495 36.9518C39.9445 36.7984 40.0359 36.6395 40.1212 36.4795C40.3751 36.0037 40.1952 35.4121 39.7193 35.1582Z" fill="#F4F4F4"/>
<path d="M26.2648 39.0186H25.7819C25.2426 39.0186 24.8053 39.4558 24.8053 39.9951C24.8053 40.5345 25.2426 40.9717 25.7819 40.9717H26.2648C26.8041 40.9717 27.2414 40.5345 27.2414 39.9951C27.2414 39.4558 26.8042 39.0186 26.2648 39.0186Z" fill="#F4F4F4"/>
<path d="M41.0791 31.7332C41.063 31.5527 41.0409 31.3704 41.0131 31.1914C40.9306 30.6584 40.4308 30.2933 39.8986 30.3758C39.3655 30.4585 39.0005 30.9575 39.083 31.4904C39.1043 31.6281 39.1215 31.7681 39.1339 31.9069C39.1792 32.4145 39.6053 32.7966 40.1054 32.7966C40.1345 32.7966 40.1639 32.7954 40.1934 32.7927C40.7306 32.7447 41.1273 32.2704 41.0791 31.7332Z" fill="#F4F4F4"/>
<path d="M38.9289 26.8187C38.8074 26.6842 38.6802 26.5521 38.5509 26.4262C38.1644 26.0498 37.5461 26.058 37.1699 26.4444C36.7935 26.8309 36.8017 27.4491 37.1881 27.8254C37.2878 27.9226 37.3861 28.0245 37.4799 28.1283C37.6728 28.3417 37.9381 28.4501 38.2047 28.4501C38.4381 28.45 38.6724 28.3668 38.8592 28.1979C39.2594 27.8363 39.2906 27.2187 38.9289 26.8187Z" fill="#F4F4F4"/>
<path d="M34.2602 24.1784C34.0827 24.144 33.9013 24.115 33.7215 24.0919C33.1861 24.0232 32.6974 24.4019 32.629 24.9368C32.5607 25.4718 32.939 25.9609 33.4739 26.0293C33.6124 26.047 33.7518 26.0693 33.8883 26.0959C33.9511 26.1081 34.0136 26.114 34.0752 26.114C34.5336 26.1139 34.9426 25.7897 35.0331 25.3231C35.1357 24.7936 34.7897 24.2812 34.2602 24.1784Z" fill="#F4F4F4"/>
<path d="M36.7038 38.874C36.4745 38.3857 35.8931 38.1756 35.4047 38.4051C35.2791 38.4641 35.1494 38.5198 35.0193 38.5709C34.5171 38.7679 34.2698 39.3345 34.4667 39.8366C34.6177 40.2217 34.9861 40.4568 35.3762 40.4568C35.4948 40.4568 35.6154 40.4351 35.7324 40.3892C35.9019 40.3227 36.071 40.25 36.2349 40.1731C36.723 39.9439 36.9329 39.3623 36.7038 38.874Z" fill="#F4F4F4"/>
<path d="M29.2468 24.0235H29.0027C28.4634 24.0235 28.0261 24.4607 28.0261 25.0001C28.0261 25.5394 28.4634 25.9766 29.0027 25.9766H29.2468C29.7862 25.9766 30.2234 25.5393 30.2234 25.0001C30.2234 24.4607 29.7861 24.0235 29.2468 24.0235Z" fill="#F4F4F4"/>
</g>
<defs>
<clipPath id="clip0">
<rect width="50" height="50" fill="white"/>
</clipPath>
</defs>
</svg>
