<svg width="665" height="538" viewBox="0 0 665 538" fill="none" xmlns="http://www.w3.org/2000/svg">
<path d="M518.065 408.438C426.348 591.985 271.519 539.738 182.98 496.123C37.2317 408.438 0 256.003 0 164.92C0 73.8372 73.7917 0 164.818 0C255.845 0 713.114 18.1001 518.065 408.438Z" fill="#09C184" fill-opacity="0.8"/>
<g clip-path="url(#clip0)">
<path d="M489.399 148.515H486.985V82.3149C486.985 77.2833 485.995 72.301 484.071 67.6524C482.147 63.0038 479.327 58.78 475.773 55.2222C472.218 51.6643 467.998 48.8421 463.353 46.9166C458.708 44.9911 453.73 44 448.703 44H308.571C303.543 44 298.565 44.991 293.921 46.9165C289.276 48.842 285.056 51.6642 281.501 55.2221C277.946 58.7799 275.127 63.0037 273.203 67.6523C271.279 72.3009 270.289 77.2832 270.289 82.3147V445.494C270.289 455.655 274.322 465.401 281.501 472.586C288.68 479.772 298.417 483.809 308.57 483.809H448.703C458.856 483.809 468.593 479.772 475.772 472.587C482.952 465.401 486.985 455.656 486.985 445.494V195.637H489.399V148.515Z" fill="#E6E6E6"/>
<path d="M450.248 53.9683H431.956C432.797 56.0324 433.118 58.2719 432.891 60.4895C432.664 62.7071 431.895 64.8347 430.653 66.685C429.41 68.5352 427.732 70.0512 425.767 71.0995C423.801 72.1478 421.608 72.6962 419.381 72.6964H339.1C336.873 72.6962 334.68 72.1478 332.714 71.0995C330.749 70.0512 329.071 68.5352 327.828 66.685C326.586 64.8347 325.817 62.7071 325.59 60.4895C325.363 58.2719 325.684 56.0324 326.525 53.9683H309.44C301.858 53.9683 294.587 56.9828 289.225 62.3488C283.864 67.7148 280.852 74.9926 280.852 82.5813V445.227C280.852 448.985 281.591 452.706 283.028 456.177C284.465 459.649 286.57 462.803 289.225 465.46C291.88 468.117 295.031 470.225 298.5 471.663C301.968 473.1 305.686 473.841 309.44 473.841H450.248C454.002 473.841 457.72 473.1 461.188 471.663C464.657 470.225 467.808 468.117 470.463 465.46C473.118 462.803 475.223 459.649 476.66 456.177C478.097 452.706 478.836 448.985 478.836 445.227V82.5813C478.836 78.8238 478.097 75.1031 476.66 71.6316C475.223 68.1601 473.118 65.0058 470.463 62.3488C467.808 59.6919 464.657 57.5843 461.188 56.1463C457.72 54.7084 454.002 53.9683 450.248 53.9683Z" fill="#B7B7B7"/>
<path d="M352.838 498.364H351.027L354.649 256.033H356.461L352.838 498.364Z" fill="#3F3D56"/>
<path d="M402.349 498.364H400.538L396.915 256.033H398.726L402.349 498.364Z" fill="#3F3D56"/>
<path d="M397.519 260.868H355.253V262.681H397.519V260.868Z" fill="#3F3D56"/>
<path d="M397.519 292.292H355.253V294.105H397.519V292.292Z" fill="#3F3D56"/>
<path d="M398.726 323.717H354.649V325.53H398.726V323.717Z" fill="#3F3D56"/>
<path d="M399.33 355.141H354.649V356.954H399.33V355.141Z" fill="#3F3D56"/>
<path d="M399.934 386.566H354.046V388.379H399.934V386.566Z" fill="#3F3D56"/>
<path d="M399.934 417.99H353.442V419.803H399.934V417.99Z" fill="#3F3D56"/>
<path d="M400.538 449.415H352.838V451.228H400.538V449.415Z" fill="#3F3D56"/>
<path d="M401.142 480.839H351.63V482.652H401.142V480.839Z" fill="#3F3D56"/>
<path d="M374.374 374.096C388.383 374.096 399.741 362.729 399.741 348.707C399.741 334.685 388.383 323.318 374.374 323.318C360.364 323.318 349.007 334.685 349.007 348.707C349.007 362.729 360.364 374.096 374.374 374.096Z" fill="#07F9A2"/>
<path d="M389.295 366.255L381.711 367.629L384.171 381.228L391.754 379.854L389.295 366.255Z" fill="#07F9A2"/>
<path d="M374.128 369.003L366.545 370.377L369.005 383.975L376.588 382.601L374.128 369.003Z" fill="#07F9A2"/>
<path d="M373.03 386.835C375.737 384.54 377.234 381.857 376.375 380.841C375.515 379.825 372.624 380.862 369.918 383.156C367.211 385.45 365.714 388.133 366.573 389.149C367.433 390.165 370.324 389.129 373.03 386.835Z" fill="#07F9A2"/>
<path d="M387.881 384.144C390.587 381.85 392.084 379.167 391.225 378.151C390.365 377.135 387.474 378.171 384.768 380.465C382.061 382.759 380.564 385.443 381.424 386.459C382.283 387.474 385.174 386.438 387.881 384.144Z" fill="#07F9A2"/>
<path d="M372.598 351.174C377.386 351.174 381.267 347.289 381.267 342.497C381.267 337.705 377.386 333.82 372.598 333.82C367.81 333.82 363.928 337.705 363.928 342.497C363.928 347.289 367.81 351.174 372.598 351.174Z" fill="white"/>
<path d="M369.035 342.279C370.631 342.279 371.924 340.984 371.924 339.387C371.924 337.789 370.631 336.494 369.035 336.494C367.439 336.494 366.145 337.789 366.145 339.387C366.145 340.984 367.439 342.279 369.035 342.279Z" fill="#3F3D56"/>
<path d="M394.385 321.087C394.766 311.688 386.672 303.726 376.306 303.305C365.941 302.883 357.228 310.161 356.847 319.561C356.465 328.96 363.671 331.096 374.037 331.517C384.402 331.939 394.003 330.486 394.385 321.087Z" fill="#76D9B9"/>
<path d="M363.314 346.918C363.805 344.773 358.668 341.764 351.84 340.197C345.013 338.631 339.079 339.1 338.588 341.246C338.097 343.391 343.234 346.4 350.061 347.966C356.889 349.533 362.822 349.063 363.314 346.918Z" fill="#07F9A2"/>
<path d="M413.108 355.206C413.599 353.061 408.462 350.052 401.635 348.485C394.807 346.919 388.874 347.388 388.382 349.533C387.891 351.679 393.028 354.688 399.855 356.254C406.683 357.82 412.617 357.351 413.108 355.206Z" fill="#07F9A2"/>
<path d="M381.341 358.712C381.477 359.46 381.465 360.227 381.305 360.97C381.146 361.713 380.841 362.418 380.409 363.043C379.977 363.668 379.427 364.202 378.788 364.614C378.15 365.026 377.437 365.308 376.69 365.444C375.943 365.58 375.177 365.567 374.434 365.407C373.692 365.246 372.989 364.941 372.365 364.508C371.74 364.076 371.207 363.524 370.796 362.885C370.385 362.246 370.104 361.532 369.968 360.785L369.966 360.773C369.397 357.63 371.826 356.517 374.967 355.948C378.108 355.379 380.772 355.569 381.341 358.712Z" fill="white"/>
<path d="M461.84 198.246L299.466 212.811C298.668 212.882 297.876 212.633 297.261 212.119C296.647 211.606 296.262 210.869 296.189 210.072L292.579 169.759C292.509 168.961 292.757 168.167 293.271 167.553C293.784 166.938 294.52 166.552 295.317 166.479L457.691 151.914C458.488 151.844 459.281 152.092 459.895 152.606C460.509 153.12 460.895 153.856 460.967 154.654L464.577 194.967C464.648 195.765 464.399 196.558 463.886 197.173C463.373 197.788 462.637 198.174 461.84 198.246ZM295.424 167.683C294.946 167.727 294.505 167.958 294.197 168.327C293.889 168.696 293.74 169.172 293.782 169.651L297.392 209.964C297.435 210.442 297.667 210.884 298.035 211.192C298.404 211.501 298.879 211.65 299.358 211.608L461.732 197.042C462.21 196.999 462.652 196.767 462.96 196.399C463.267 196.03 463.417 195.554 463.374 195.075L459.764 154.762C459.721 154.283 459.49 153.841 459.121 153.533C458.753 153.225 458.277 153.076 457.799 153.118L295.424 167.683Z" fill="#E6E6E6"/>
<path d="M318.44 200.448C325.442 200.448 331.119 194.766 331.119 187.757C331.119 180.748 325.442 175.067 318.44 175.067C311.437 175.067 305.76 180.748 305.76 187.757C305.76 194.766 311.437 200.448 318.44 200.448Z" fill="#07F9A2"/>
<path d="M346.852 176.714C346.576 176.739 346.307 176.818 346.061 176.947C345.815 177.076 345.597 177.252 345.419 177.465C345.241 177.678 345.107 177.924 345.024 178.189C344.941 178.454 344.911 178.733 344.936 179.01C344.961 179.286 345.04 179.555 345.168 179.801C345.297 180.048 345.473 180.266 345.686 180.444C345.899 180.622 346.145 180.756 346.41 180.839C346.674 180.922 346.953 180.952 347.229 180.927L446.458 172.027C446.734 172.002 447.003 171.923 447.249 171.794C447.495 171.665 447.713 171.489 447.891 171.276C448.069 171.063 448.203 170.817 448.286 170.552C448.369 170.287 448.399 170.008 448.374 169.731C448.349 169.454 448.27 169.185 448.142 168.939C448.013 168.693 447.837 168.475 447.624 168.297C447.411 168.119 447.165 167.984 446.9 167.901C446.636 167.818 446.357 167.788 446.081 167.813L346.852 176.714Z" fill="#E6E6E6"/>
<path d="M347.984 189.354C347.707 189.378 347.437 189.456 347.19 189.585C346.943 189.713 346.724 189.889 346.545 190.102C346.366 190.316 346.231 190.562 346.148 190.828C346.065 191.093 346.035 191.373 346.059 191.65C346.084 191.928 346.164 192.197 346.293 192.444C346.422 192.691 346.599 192.909 346.813 193.087C347.026 193.265 347.273 193.4 347.539 193.482C347.805 193.564 348.084 193.593 348.361 193.567L447.59 184.667C448.147 184.616 448.662 184.346 449.021 183.915C449.38 183.485 449.554 182.93 449.504 182.371C449.454 181.813 449.184 181.297 448.755 180.938C448.325 180.578 447.77 180.404 447.212 180.453L347.984 189.354Z" fill="#E6E6E6"/>
<path d="M402.575 207.714C405.138 201 405.51 194.905 403.404 194.1C401.298 193.294 397.513 198.083 394.949 204.797C392.385 211.51 392.014 217.605 394.12 218.411C396.225 219.216 400.011 214.427 402.575 207.714Z" fill="#07F9A2"/>
<path d="M400.395 230.078C402.695 215.889 393.068 202.521 378.892 200.218C364.716 197.916 351.359 207.551 349.058 221.74C346.758 235.928 356.385 249.297 370.561 251.599C384.737 253.901 398.094 244.266 400.395 230.078Z" fill="#07F9A2"/>
<path d="M370.777 246.334H362.877V260.501H370.777V246.334Z" fill="#07F9A2"/>
<path d="M386.576 246.334H378.676V260.501H386.576V246.334Z" fill="#07F9A2"/>
<path d="M369.46 263.136C373.096 263.136 376.043 262.03 376.043 260.665C376.043 259.301 373.096 258.195 369.46 258.195C365.824 258.195 362.877 259.301 362.877 260.665C362.877 262.03 365.824 263.136 369.46 263.136Z" fill="#07F9A2"/>
<path d="M385.26 262.807C388.896 262.807 391.843 261.701 391.843 260.336C391.843 258.971 388.896 257.865 385.26 257.865C381.624 257.865 378.676 258.971 378.676 260.336C378.676 261.701 381.624 262.807 385.26 262.807Z" fill="#07F9A2"/>
<path d="M349.502 201.705C347.402 192.294 354.114 182.784 364.493 180.464C374.873 178.144 384.989 183.894 387.088 193.305C389.188 202.717 382.309 206.188 371.93 208.507C361.551 210.827 351.602 211.117 349.502 201.705Z" fill="#76D9B9"/>
<path d="M357.185 219.409C358.151 217.371 353.675 213.221 347.187 210.141C340.699 207.062 334.656 206.217 333.69 208.256C332.724 210.295 337.2 214.444 343.688 217.524C350.176 220.603 356.219 221.448 357.185 219.409Z" fill="#07F9A2"/>
<path d="M218.055 489.799C232.417 489.799 244.059 478.146 244.059 463.772C244.059 449.398 232.417 437.746 218.055 437.746C203.694 437.746 192.051 449.398 192.051 463.772C192.051 478.146 203.694 489.799 218.055 489.799Z" fill="#07F9A2"/>
<path d="M214.105 484.198H206.205V498.365H214.105V484.198Z" fill="#07F9A2"/>
<path d="M229.905 484.198H222.005V498.365H229.905V484.198Z" fill="#07F9A2"/>
<path d="M212.788 501C216.424 501 219.372 499.894 219.372 498.529C219.372 497.164 216.424 496.058 212.788 496.058C209.153 496.058 206.205 497.164 206.205 498.529C206.205 499.894 209.153 501 212.788 501Z" fill="#07F9A2"/>
<path d="M228.588 500.671C232.224 500.671 235.172 499.564 235.172 498.2C235.172 496.835 232.224 495.729 228.588 495.729C224.952 495.729 222.005 496.835 222.005 498.2C222.005 499.564 224.952 500.671 228.588 500.671Z" fill="#07F9A2"/>
<path d="M218.713 466.079C223.622 466.079 227.601 462.096 227.601 457.183C227.601 452.271 223.622 448.288 218.713 448.288C213.805 448.288 209.826 452.271 209.826 457.183C209.826 462.096 213.805 466.079 218.713 466.079Z" fill="white"/>
<path d="M218.713 460.149C220.35 460.149 221.676 458.821 221.676 457.184C221.676 455.546 220.35 454.219 218.713 454.219C217.077 454.219 215.751 455.546 215.751 457.184C215.751 458.821 217.077 460.149 218.713 460.149Z" fill="#3F3D56"/>
<path d="M192.83 439.569C190.731 430.157 197.443 420.647 207.822 418.328C218.201 416.008 228.317 421.757 230.417 431.169C232.517 440.58 225.638 444.051 215.259 446.371C204.88 448.691 194.93 448.98 192.83 439.569Z" fill="#E6E6E6"/>
<path d="M233.235 374.537C235.535 370.287 236.429 366.316 235.232 365.668C234.036 365.02 231.202 367.939 228.903 372.189C226.603 376.439 225.709 380.409 226.905 381.058C228.102 381.706 230.936 378.786 233.235 374.537Z" fill="#07F9A2"/>
<path d="M234.836 393.157C237.136 378.969 227.509 365.6 213.333 363.298C199.157 360.995 185.8 370.631 183.5 384.819C181.199 399.007 190.826 412.376 205.002 414.678C219.178 416.981 232.535 407.345 234.836 393.157Z" fill="#07F9A2"/>
<path d="M205.218 409.414H197.318V423.58H205.218V409.414Z" fill="#07F9A2"/>
<path d="M221.018 409.414H213.118V423.58H221.018V409.414Z" fill="#07F9A2"/>
<path d="M203.901 426.216C207.537 426.216 210.484 425.109 210.484 423.745C210.484 422.38 207.537 421.274 203.901 421.274C200.265 421.274 197.318 422.38 197.318 423.745C197.318 425.109 200.265 426.216 203.901 426.216Z" fill="#07F9A2"/>
<path d="M219.701 425.886C223.337 425.886 226.284 424.78 226.284 423.415C226.284 422.051 223.337 420.944 219.701 420.944C216.065 420.944 213.118 422.051 213.118 423.415C213.118 424.78 216.065 425.886 219.701 425.886Z" fill="#07F9A2"/>
<path d="M209.826 391.294C214.734 391.294 218.713 387.312 218.713 382.399C218.713 377.486 214.734 373.504 209.826 373.504C204.918 373.504 200.939 377.486 200.939 382.399C200.939 387.312 204.918 391.294 209.826 391.294Z" fill="white"/>
<path d="M209.826 385.364C211.462 385.364 212.788 384.037 212.788 382.399C212.788 380.762 211.462 379.434 209.826 379.434C208.19 379.434 206.864 380.762 206.864 382.399C206.864 384.037 208.19 385.364 209.826 385.364Z" fill="#3F3D56"/>
<path d="M183.943 364.784C181.843 355.373 188.555 345.863 198.934 343.543C209.314 341.224 219.43 346.973 221.529 356.384C223.629 365.796 216.751 369.267 206.371 371.586C195.992 373.906 186.043 374.196 183.943 364.784Z" fill="#76D9B9"/>
<path d="M191.626 382.488C192.592 380.45 188.116 376.3 181.628 373.221C175.14 370.141 169.097 369.297 168.131 371.335C167.165 373.374 171.642 377.523 178.13 380.603C184.618 383.683 190.66 384.527 191.626 382.488Z" fill="#07F9A2"/>
<path d="M196.395 398.377C196.395 400.925 202.948 405.954 210.22 405.954C217.491 405.954 224.309 398.783 224.309 396.236C224.309 393.689 217.491 396.73 210.22 396.73C202.948 396.73 196.395 395.83 196.395 398.377Z" fill="white"/>
<path d="M320.972 389.599C323.536 382.886 323.907 376.79 321.801 375.985C319.696 375.179 315.91 379.968 313.347 386.682C310.783 393.395 310.412 399.49 312.517 400.296C314.623 401.101 318.408 396.312 320.972 389.599Z" fill="#07F9A2"/>
<path d="M324.226 417.402C326.527 403.213 316.9 389.845 302.723 387.542C288.547 385.24 275.19 394.875 272.89 409.064C270.59 423.252 280.217 436.621 294.393 438.923C308.569 441.225 321.926 431.59 324.226 417.402Z" fill="#07F9A2"/>
<path d="M286.708 433.659H294.608L293.062 450.623L286.708 447.824V433.659Z" fill="#07F9A2"/>
<path d="M293.387 455.607C294.588 454.962 294.167 451.84 292.448 448.633C290.728 445.427 288.36 443.352 287.158 443.997C285.957 444.643 286.378 447.765 288.097 450.971C289.817 454.177 292.185 456.253 293.387 455.607Z" fill="#07F9A2"/>
<path d="M303.931 433.702H311.831L310.285 450.667L303.931 447.869V433.702Z" fill="#07F9A2"/>
<path d="M310.609 455.652C311.81 455.006 311.39 451.884 309.67 448.678C307.95 445.472 305.582 443.396 304.381 444.041C303.18 444.687 303.6 447.809 305.32 451.015C307.04 454.221 309.408 456.297 310.609 455.652Z" fill="#07F9A2"/>
<path d="M299.216 415.539C304.125 415.539 308.104 411.556 308.104 406.644C308.104 401.731 304.125 397.749 299.216 397.749C294.308 397.749 290.329 401.731 290.329 406.644C290.329 411.556 294.308 415.539 299.216 415.539Z" fill="white"/>
<path d="M299.216 409.609C300.853 409.609 302.179 408.281 302.179 406.644C302.179 405.006 300.853 403.679 299.216 403.679C297.58 403.679 296.254 405.006 296.254 406.644C296.254 408.281 297.58 409.609 299.216 409.609Z" fill="#3F3D56"/>
<path d="M273.333 389.029C271.234 379.617 277.946 370.108 288.325 367.788C298.704 365.468 308.82 371.218 310.92 380.629C313.02 390.041 306.141 393.512 295.762 395.831C285.383 398.151 275.433 398.441 273.333 389.029Z" fill="#F2F2F2"/>
<path d="M276.394 406.065C278.053 404.538 275.458 399.011 270.598 393.72C265.737 388.428 260.452 385.377 258.792 386.904C257.133 388.43 259.728 393.957 264.589 399.249C269.449 404.54 274.734 407.592 276.394 406.065Z" fill="#07F9A2"/>
<path d="M311.245 426.652C311.245 424.553 305.845 420.407 299.851 420.407C293.858 420.407 288.239 426.318 288.239 428.417C288.239 430.517 293.858 428.01 299.851 428.01C305.844 428.01 311.245 428.752 311.245 426.652Z" fill="white"/>
<mask id="path-67-inside-1" fill="white">
<path d="M282.005 391.443C274.472 391.446 267.011 389.963 260.051 387.079C253.09 384.196 246.765 379.967 241.438 374.635C236.111 369.304 231.886 362.974 229.005 356.007C226.123 349.04 224.642 341.573 224.645 334.033C224.645 333.913 224.645 333.787 224.652 333.666C224.828 302.227 250.557 276.623 282.005 276.623C294.945 276.625 307.504 281.005 317.643 289.052C327.782 297.099 334.905 308.34 337.856 320.95C340.806 333.56 339.41 346.798 333.895 358.514C328.381 370.23 319.07 379.736 307.476 385.488C299.564 389.428 290.843 391.467 282.005 391.443ZM282.005 277.832C267.18 277.864 252.967 283.751 242.454 294.213C231.94 304.675 225.977 318.867 225.859 333.704C225.852 333.833 225.852 333.936 225.852 334.033C225.849 348.286 231.255 362.007 240.978 372.421C250.701 382.834 264.013 389.162 278.221 390.122C292.429 391.083 306.471 386.605 317.505 377.594C328.538 368.584 335.739 355.715 337.651 341.591C338.73 333.645 338.097 325.559 335.795 317.877C333.493 310.196 329.575 303.096 324.303 297.056C319.032 291.016 312.53 286.176 305.234 282.86C297.939 279.544 290.018 277.829 282.005 277.832Z"/>
</mask>
<path d="M282.005 391.443L282.052 374.443L282.025 374.443L281.998 374.443L282.005 391.443ZM224.645 334.033L241.645 334.04V334.033H224.645ZM224.652 333.666L241.625 334.625L241.649 334.193L241.652 333.761L224.652 333.666ZM282.005 276.623L282.008 259.623H282.005V276.623ZM307.476 385.488L299.921 370.259L299.909 370.265L299.898 370.271L307.476 385.488ZM282.005 277.832L282.001 260.832L281.984 260.832L281.968 260.832L282.005 277.832ZM225.859 333.704L242.837 334.563L242.855 334.201L242.858 333.84L225.859 333.704ZM225.852 334.033L242.852 334.038V334.033H225.852ZM337.651 341.591L320.805 339.303L320.804 339.312L337.651 341.591ZM281.998 374.443C276.7 374.445 271.454 373.403 266.558 371.374L253.544 402.785C262.569 406.524 272.243 408.447 282.013 408.443L281.998 374.443ZM266.558 371.374C261.662 369.346 257.213 366.371 253.464 362.62L229.412 386.651C236.318 393.563 244.518 399.045 253.544 402.785L266.558 371.374ZM253.464 362.62C249.716 358.868 246.742 354.413 244.714 349.509L213.295 362.504C217.03 371.534 222.507 379.739 229.412 386.651L253.464 362.62ZM244.714 349.509C242.686 344.605 241.643 339.349 241.645 334.04L207.645 334.026C207.641 343.798 209.561 353.475 213.295 362.504L244.714 349.509ZM241.645 334.033C241.645 333.973 241.645 334.025 241.644 334.104C241.643 334.187 241.639 334.375 241.625 334.625L207.679 332.708C207.641 333.377 207.645 333.965 207.645 334.033H241.645ZM241.652 333.761C241.775 311.668 259.914 293.623 282.005 293.623V259.623C241.2 259.623 207.88 292.785 207.652 333.571L241.652 333.761ZM282.003 293.623C291.105 293.624 299.94 296.705 307.075 302.368L328.212 275.736C315.069 265.305 298.786 259.625 282.008 259.623L282.003 293.623ZM307.075 302.368C314.21 308.031 319.225 315.944 321.303 324.823L354.409 317.077C350.586 300.737 341.355 286.168 328.212 275.736L307.075 302.368ZM321.303 324.823C323.38 333.703 322.397 343.025 318.514 351.274L349.277 365.754C356.424 350.572 358.232 333.418 354.409 317.077L321.303 324.823ZM318.514 351.274C314.631 359.523 308.078 366.212 299.921 370.259L315.032 400.717C330.062 393.26 342.13 380.937 349.277 365.754L318.514 351.274ZM299.898 370.271C294.354 373.032 288.243 374.46 282.052 374.443L281.958 408.443C293.442 408.475 304.775 405.825 315.055 400.705L299.898 370.271ZM281.968 260.832C262.659 260.874 244.15 268.542 230.462 282.163L254.445 306.263C261.783 298.961 271.701 294.854 282.043 294.832L281.968 260.832ZM230.462 282.163C216.774 295.784 209.013 314.257 208.859 333.569L242.858 333.84C242.941 323.476 247.106 313.566 254.445 306.263L230.462 282.163ZM208.88 332.846C208.849 333.462 208.852 333.971 208.852 334.033H242.852C242.852 333.9 242.855 334.204 242.837 334.563L208.88 332.846ZM208.852 334.029C208.847 352.588 215.888 370.458 228.552 384.023L253.404 360.819C246.623 353.557 242.85 343.984 242.852 334.038L208.852 334.029ZM228.552 384.023C241.217 397.587 258.561 405.832 277.075 407.083L279.368 373.161C269.466 372.491 260.184 368.082 253.404 360.819L228.552 384.023ZM277.075 407.083C295.588 408.335 313.883 402.5 328.257 390.762L306.752 364.427C299.058 370.71 289.27 373.83 279.368 373.161L277.075 407.083ZM328.257 390.762C342.63 379.024 352.008 362.263 354.497 343.871L320.804 339.312C319.47 349.167 314.446 358.144 306.752 364.427L328.257 390.762ZM354.496 343.88C355.902 333.531 355.078 323.001 352.08 312.997L319.511 322.758C321.117 328.117 321.558 333.759 320.805 339.303L354.496 343.88ZM352.08 312.997C349.081 302.993 343.978 293.746 337.112 285.878L311.495 308.235C315.171 312.447 317.905 317.399 319.511 322.758L352.08 312.997ZM337.112 285.878C330.245 278.01 321.774 271.704 312.268 267.383L298.2 298.336C303.286 300.648 307.819 304.022 311.495 308.235L337.112 285.878ZM312.268 267.383C302.762 263.063 292.442 260.829 282.001 260.832L282.01 294.832C287.594 294.83 293.115 296.025 298.2 298.336L312.268 267.383Z" fill="#3F3D56" mask="url(#path-67-inside-1)"/>
<path d="M306.982 336.812L267.722 314.126C267.538 314.02 267.33 313.964 267.118 313.964C266.906 313.964 266.698 314.02 266.514 314.126C266.331 314.232 266.178 314.385 266.072 314.568C265.966 314.752 265.911 314.96 265.911 315.173V360.546C265.911 360.758 265.966 360.966 266.072 361.15C266.178 361.334 266.331 361.486 266.514 361.592C266.698 361.698 266.906 361.754 267.118 361.754C267.33 361.754 267.538 361.698 267.722 361.592L306.982 338.906C307.166 338.8 307.318 338.647 307.424 338.463C307.53 338.28 307.586 338.071 307.586 337.859C307.586 337.647 307.53 337.439 307.424 337.255C307.318 337.071 307.166 336.919 306.982 336.812L267.722 314.126C267.538 314.02 267.33 313.964 267.118 313.964C266.906 313.964 266.698 314.02 266.514 314.126C266.331 314.232 266.178 314.385 266.072 314.568C265.966 314.752 265.911 314.96 265.911 315.173V360.546C265.911 360.758 265.966 360.966 266.072 361.15C266.178 361.334 266.331 361.486 266.514 361.592C266.698 361.698 266.906 361.754 267.118 361.754C267.33 361.754 267.538 361.698 267.722 361.592L306.982 338.906C307.166 338.8 307.318 338.647 307.424 338.463C307.53 338.28 307.586 338.071 307.586 337.859C307.586 337.647 307.53 337.439 307.424 337.255C307.318 337.071 307.166 336.919 306.982 336.812Z" fill="#0E5159"/>
<path d="M225.001 502.417C242.675 502.417 257.002 501.876 257.002 501.209C257.002 500.541 242.675 500 225.001 500C207.327 500 193 500.541 193 501.209C193 501.876 207.327 502.417 225.001 502.417Z" fill="#E6E6E6"/>
<path d="M632.999 485.674C650.673 485.674 665 485.133 665 484.465C665 483.798 650.673 483.256 632.999 483.256C615.325 483.256 600.998 483.798 600.998 484.465C600.998 485.133 615.325 485.674 632.999 485.674Z" fill="#E6E6E6"/>
<path d="M632.846 483.447L489.345 406.02C488.64 405.639 488.116 404.994 487.887 404.227C487.657 403.46 487.741 402.632 488.12 401.927L507.31 366.3C507.69 365.595 508.334 365.07 509.101 364.84C509.868 364.61 510.695 364.694 511.399 365.074L654.901 442.501C655.605 442.882 656.129 443.526 656.359 444.294C656.588 445.061 656.504 445.889 656.125 446.594L636.936 482.221C636.555 482.926 635.911 483.451 635.144 483.681C634.377 483.911 633.551 483.827 632.846 483.447ZM510.826 366.138C510.403 365.91 509.908 365.859 509.447 365.997C508.987 366.135 508.601 366.45 508.372 366.873L489.183 402.5C488.955 402.924 488.905 403.42 489.043 403.88C489.18 404.341 489.495 404.728 489.918 404.956L633.419 482.383C633.842 482.611 634.338 482.661 634.798 482.524C635.258 482.386 635.644 482.071 635.873 481.648L655.062 446.021C655.29 445.597 655.34 445.101 655.202 444.64C655.065 444.18 654.75 443.793 654.327 443.564L510.826 366.138Z" fill="#E6E6E6"/>
<path d="M518.974 408.274C525.977 408.274 531.654 402.592 531.654 395.584C531.654 388.575 525.977 382.893 518.974 382.893C511.971 382.893 506.294 388.575 506.294 395.584C506.294 402.592 511.971 408.274 518.974 408.274Z" fill="#76D9B9"/>
<path d="M548.762 402.044C548.518 401.913 548.25 401.83 547.974 401.802C547.698 401.773 547.419 401.8 547.153 401.88C546.887 401.959 546.639 402.091 546.424 402.266C546.209 402.441 546.03 402.658 545.899 402.902C545.767 403.147 545.685 403.415 545.656 403.691C545.628 403.968 545.655 404.247 545.734 404.513C545.814 404.779 545.945 405.027 546.121 405.242C546.296 405.458 546.512 405.636 546.757 405.768L634.451 453.084C634.696 453.216 634.964 453.299 635.24 453.327C635.516 453.355 635.795 453.329 636.061 453.249C636.327 453.17 636.575 453.038 636.79 452.863C637.005 452.687 637.184 452.471 637.315 452.227C637.447 451.982 637.529 451.714 637.557 451.438C637.586 451.161 637.559 450.882 637.479 450.616C637.4 450.35 637.268 450.102 637.093 449.887C636.918 449.671 636.702 449.493 636.457 449.361L548.762 402.044Z" fill="#E6E6E6"/>
<path d="M542.745 413.215C542.252 412.949 541.673 412.89 541.136 413.051C540.599 413.212 540.148 413.58 539.882 414.073C539.616 414.567 539.557 415.147 539.718 415.684C539.879 416.221 540.246 416.673 540.74 416.939L628.435 464.255C628.679 464.387 628.947 464.469 629.223 464.498C629.499 464.526 629.778 464.499 630.044 464.42C630.31 464.34 630.557 464.209 630.772 464.033C630.987 463.858 631.166 463.642 631.298 463.397C631.429 463.153 631.512 462.885 631.54 462.608C631.568 462.332 631.542 462.053 631.462 461.787C631.382 461.521 631.251 461.273 631.076 461.058C630.901 460.842 630.685 460.664 630.44 460.532L542.745 413.215Z" fill="#E6E6E6"/>
</g>
<defs>
<clipPath id="clip0">
<rect width="497" height="457" fill="white" transform="translate(168 44)"/>
</clipPath>
</defs>
</svg>
