<svg width="305" height="40" viewBox="0 0 305 40" fill="none" xmlns="http://www.w3.org/2000/svg">
<path d="M236.177 38H227.285L212.413 15.484V38H203.521V1.496H212.413L227.285 24.116V1.496H236.177V38ZM251.514 8.62V16.004H263.422V22.868H251.514V30.876H264.982V38H242.622V1.496H264.982V8.62H251.514ZM293.115 38L285.679 26.82L279.127 38H269.039L280.739 19.436L268.779 1.496H279.127L286.459 12.52L292.907 1.496H302.995L291.399 19.904L303.463 38H293.115Z" fill="#76D9B9"/>
<path d="M35.049 1.496V38H26.157V22.972H12.325V38H3.43298V1.496H12.325V15.796H26.157V1.496H35.049ZM64.1921 31.552H50.5681L48.3841 38H39.0761L52.2841 1.496H62.5801L75.7881 38H66.3761L64.1921 31.552ZM61.9041 24.688L57.3801 11.324L52.9081 24.688H61.9041ZM78.3 19.696C78.3 16.0907 79.08 12.884 80.64 10.076C82.2 7.23333 84.3667 5.032 87.14 3.472C89.948 1.87733 93.12 1.08 96.656 1.08C100.989 1.08 104.699 2.224 107.784 4.512C110.869 6.8 112.932 9.92 113.972 13.872H104.196C103.468 12.3467 102.428 11.1853 101.076 10.388C99.7587 9.59067 98.2507 9.192 96.552 9.192C93.8133 9.192 91.5947 10.1453 89.896 12.052C88.1973 13.9587 87.348 16.5067 87.348 19.696C87.348 22.8853 88.1973 25.4333 89.896 27.34C91.5947 29.2467 93.8133 30.2 96.552 30.2C98.2507 30.2 99.7587 29.8013 101.076 29.004C102.428 28.2067 103.468 27.0453 104.196 25.52H113.972C112.932 29.472 110.869 32.592 107.784 34.88C104.699 37.1333 100.989 38.26 96.656 38.26C93.12 38.26 89.948 37.48 87.14 35.92C84.3667 34.3253 82.2 32.124 80.64 29.316C79.08 26.508 78.3 23.3013 78.3 19.696ZM140.581 38L128.309 21.88V38H119.417V1.496H128.309V17.512L140.477 1.496H150.929L136.785 19.384L151.449 38H140.581ZM178.399 31.552H164.775L162.591 38H153.283L166.491 1.496H176.787L189.995 38H180.583L178.399 31.552ZM176.111 24.688L171.587 11.324L167.115 24.688H176.111Z" fill="#F4F4F4"/>
</svg>
