<svg width="119" height="43" viewBox="0 0 119 43" fill="none" xmlns="http://www.w3.org/2000/svg">
<rect x="10" y="19" width="109" height="24" fill="#15AB89"/>
<path d="M17.5643 13.2671V16.8831H11.6123V35.6031H7.13225V16.8831H1.18025V13.2671H17.5643ZM25.313 16.8831V22.4831H32.833V26.0351H25.313V31.9551H33.793V35.6031H20.833V13.2351H33.793V16.8831H25.313ZM62.2163 13.2671V35.6031H57.7363V21.0751L51.7523 35.6031H48.3603L42.3443 21.0751V35.6031H37.8643V13.2671H42.9523L50.0563 29.8751L57.1603 13.2671H62.2163ZM80.3415 31.3471H71.4455L69.9735 35.6031H65.2695L73.3015 13.2351H78.5175L86.5495 35.6031H81.8135L80.3415 31.3471ZM79.1255 27.7631L75.8935 18.4191L72.6615 27.7631H79.1255ZM97.2638 35.8271C95.7064 35.8271 94.2984 35.5605 93.0398 35.0271C91.8024 34.4938 90.8211 33.7258 90.0958 32.7231C89.3704 31.7205 88.9971 30.5365 88.9758 29.1711H93.7758C93.8398 30.0885 94.1598 30.8138 94.7358 31.3471C95.3331 31.8805 96.1438 32.1471 97.1678 32.1471C98.2131 32.1471 99.0344 31.9018 99.6318 31.4111C100.229 30.8991 100.528 30.2378 100.528 29.4271C100.528 28.7658 100.325 28.2218 99.9198 27.7951C99.5144 27.3685 99.0024 27.0378 98.3838 26.8031C97.7864 26.5471 96.9544 26.2698 95.8878 25.9711C94.4371 25.5445 93.2531 25.1285 92.3358 24.7231C91.4398 24.2965 90.6611 23.6671 89.9998 22.8351C89.3598 21.9818 89.0398 20.8511 89.0398 19.4431C89.0398 18.1205 89.3704 16.9685 90.0318 15.9871C90.6931 15.0058 91.6211 14.2591 92.8158 13.7471C94.0104 13.2138 95.3758 12.9471 96.9118 12.9471C99.2158 12.9471 101.082 13.5125 102.512 14.6431C103.962 15.7525 104.762 17.3098 104.912 19.3151H99.9838C99.9411 18.5471 99.6104 17.9178 98.9918 17.4271C98.3944 16.9151 97.5944 16.6591 96.5918 16.6591C95.7171 16.6591 95.0131 16.8831 94.4798 17.3311C93.9678 17.7791 93.7118 18.4298 93.7118 19.2831C93.7118 19.8805 93.9038 20.3818 94.2878 20.7871C94.6931 21.1711 95.1838 21.4911 95.7598 21.7471C96.3571 21.9818 97.1891 22.2591 98.2558 22.5791C99.7064 23.0058 100.89 23.4325 101.808 23.8591C102.725 24.2858 103.514 24.9258 104.176 25.7791C104.837 26.6325 105.168 27.7525 105.168 29.1391C105.168 30.3338 104.858 31.4431 104.24 32.4671C103.621 33.4911 102.714 34.3125 101.52 34.9311C100.325 35.5285 98.9064 35.8271 97.2638 35.8271Z" fill="#F4F4F4"/>
</svg>
