<svg width="131" height="85" viewBox="0 0 131 85" fill="none" xmlns="http://www.w3.org/2000/svg">
<path d="M113.297 37.5104C117.133 34.8147 119.673 30.3305 119.673 25.2761C119.673 17.0076 112.986 10.3202 104.717 10.3202C96.4486 10.3202 89.7612 17.0076 89.7612 25.2761C89.7612 30.3305 92.2754 34.8147 96.1375 37.5104C92.8457 38.6509 89.8389 40.4134 87.2988 42.6944C83.7996 39.7136 79.6783 37.4326 75.1682 36.0848C80.6373 32.767 84.318 26.7276 84.318 19.8588C84.318 9.38712 75.8421 0.911255 65.3704 0.911255C54.8987 0.911255 46.4228 9.41304 46.4228 19.8588C46.4228 26.7276 50.0776 32.767 55.5726 36.0848C51.1144 37.4326 47.0449 39.6877 43.5716 42.6166C41.0315 40.3875 38.0766 38.6509 34.8366 37.5363C38.6727 34.8406 41.2129 30.3565 41.2129 25.302C41.2129 17.0335 34.5255 10.3462 26.257 10.3462C17.9885 10.3462 11.3011 17.0335 11.3011 25.302C11.3011 30.3565 13.8154 34.8406 17.6775 37.5363C7.38722 41.0874 0 50.8592 0 62.3418V64.0526C0 64.1044 0.0518401 64.1562 0.10368 64.1562H31.8039C31.6225 65.5818 31.5188 67.0593 31.5188 68.5367V70.2993C31.5188 77.9198 37.6878 84.0888 45.3083 84.0888H85.4844C93.1049 84.0888 99.2738 77.9198 99.2738 70.2993V68.5367C99.2738 67.0593 99.1702 65.5818 98.9887 64.1562H130.896C130.948 64.1562 131 64.1044 131 64.0526V62.3418C130.948 50.8333 123.587 41.0614 113.297 37.5104ZM93.9084 25.2502C93.9084 19.2886 98.7554 14.4415 104.717 14.4415C110.679 14.4415 115.526 19.2886 115.526 25.2502C115.526 31.1341 110.782 35.9293 104.924 36.0589C104.847 36.0589 104.795 36.0589 104.717 36.0589C104.639 36.0589 104.587 36.0589 104.51 36.0589C98.6258 35.9552 93.9084 31.16 93.9084 25.2502ZM50.5182 19.8588C50.5182 11.694 57.1537 5.05847 65.3186 5.05847C73.4834 5.05847 80.1189 11.694 80.1189 19.8588C80.1189 27.7385 73.924 34.1926 66.1739 34.6333C65.8888 34.6333 65.6037 34.6333 65.3186 34.6333C65.0334 34.6333 64.7483 34.6333 64.4632 34.6333C56.7131 34.1926 50.5182 27.7385 50.5182 19.8588ZM15.3706 25.2502C15.3706 19.2886 20.2176 14.4415 26.1793 14.4415C32.1409 14.4415 36.9879 19.2886 36.9879 25.2502C36.9879 31.1341 32.2446 35.9293 26.3866 36.0589C26.3089 36.0589 26.257 36.0589 26.1793 36.0589C26.1015 36.0589 26.0497 36.0589 25.9719 36.0589C20.114 35.9552 15.3706 31.16 15.3706 25.2502ZM32.5297 59.9831H4.19905C5.36545 48.9411 14.6967 40.2838 26.0237 40.2061C26.0756 40.2061 26.1274 40.2061 26.1793 40.2061C26.2311 40.2061 26.2829 40.2061 26.3348 40.2061C31.7262 40.232 36.651 42.2278 40.4612 45.4679C36.7287 49.5114 33.9553 54.488 32.5297 59.9831ZM95.0748 70.2993C95.0748 75.6129 90.7461 79.9416 85.4325 79.9416H45.2564C39.9428 79.9416 35.6142 75.6129 35.6142 70.2993V68.5367C35.6142 52.4404 48.4705 39.273 64.4632 38.8064C64.7483 38.8323 65.0594 38.8323 65.3445 38.8323C65.6296 38.8323 65.9406 38.8323 66.2258 38.8064C82.2184 39.273 95.0748 52.4404 95.0748 68.5367V70.2993ZM98.1593 59.9831C96.7337 54.514 94.0121 49.6151 90.3055 45.5715C94.1417 42.2538 99.1183 40.2579 104.562 40.2061C104.613 40.2061 104.665 40.2061 104.717 40.2061C104.769 40.2061 104.821 40.2061 104.873 40.2061C116.2 40.2838 125.531 48.9411 126.697 59.9831H98.1593Z" fill="#2FDF84"/>
</svg>
