<svg width="89" height="89" viewBox="0 0 89 89" fill="none" xmlns="http://www.w3.org/2000/svg">
<g clip-path="url(#clip0)">
<path d="M86.3926 22.7715H82.0469V14.9492C82.0469 13.5092 80.8794 12.3418 79.4395 12.3418H39.2525L36.3701 3.69506C36.0151 2.63019 35.0187 1.91211 33.8965 1.91211H2.60742C1.16743 1.91211 0 3.07954 0 4.51953V77.5273C0 82.799 4.28886 87.0879 9.56055 87.0879H79.4395C84.7111 87.0879 89 82.799 89 77.5273V25.3789C89 23.9389 87.8326 22.7715 86.3926 22.7715ZM13.9062 25.3789V77.5273C13.9062 79.9236 11.9568 81.873 9.56055 81.873C7.16433 81.873 5.21484 79.9236 5.21484 77.5273V7.12695H32.0171L34.8993 15.7737C35.2544 16.8386 36.2508 17.5566 37.373 17.5566H76.832V22.7715H16.5137C15.0737 22.7715 13.9062 23.9389 13.9062 25.3789ZM83.7852 77.5273C83.7852 79.9236 81.8357 81.873 79.4395 81.873H18.0752C18.7435 80.5686 19.1211 79.0911 19.1211 77.5273V27.9863H83.7852V77.5273Z" fill="#2FDF84"/>
<path d="M51.4531 74.9199C62.4757 74.9199 71.4434 65.9523 71.4434 54.9297C71.4434 43.9071 62.4757 34.9395 51.4531 34.9395C40.4305 34.9395 31.4629 43.9071 31.4629 54.9297C31.4629 65.9523 40.4305 74.9199 51.4531 74.9199ZM51.4531 40.1543C59.6003 40.1543 66.2285 46.7825 66.2285 54.9297C66.2285 63.0768 59.6003 69.7051 51.4531 69.7051C43.306 69.7051 36.6777 63.0768 36.6777 54.9297C36.6777 46.7825 43.306 40.1543 51.4531 40.1543Z" fill="#2FDF84"/>
<path d="M46.8105 65.0842C47.1796 65.2688 47.5788 65.3594 47.9762 65.3594C48.5304 65.3594 49.0809 65.1829 49.541 64.8379L59.9707 57.0156C60.6273 56.5232 61.0137 55.7503 61.0137 54.9297C61.0137 54.1091 60.6273 53.3362 59.9707 52.8438L49.541 45.0215C48.7511 44.4289 47.6937 44.3337 46.8105 44.7752C45.9271 45.2171 45.3691 46.1197 45.3691 47.1074V62.752C45.3691 63.7396 45.9271 64.6423 46.8105 65.0842ZM50.584 52.3223L54.0605 54.9297L50.584 57.5371V52.3223Z" fill="#2FDF84"/>
</g>
<defs>
<clipPath id="clip0">
<rect width="89" height="89" fill="white"/>
</clipPath>
</defs>
</svg>
