<svg width="89" height="89" viewBox="0 0 89 89" fill="none" xmlns="http://www.w3.org/2000/svg">
<path d="M43.8657 42.8716C49.7555 42.8716 54.8549 40.7592 59.0227 36.5914C63.1892 32.4243 65.3023 27.3256 65.3023 21.4351C65.3023 15.5467 63.1899 10.4473 59.0221 6.27885C54.8543 2.11242 49.7548 0 43.8657 0C37.9753 0 32.8765 2.11242 28.7094 6.27953C24.5423 10.4466 22.4292 15.546 22.4292 21.4351C22.4292 27.3256 24.5423 32.425 28.7094 36.5921C32.8779 40.7585 37.9773 42.8716 43.8657 42.8716ZM32.3978 9.96726C35.5953 6.76978 39.3462 5.21551 43.8657 5.21551C48.3846 5.21551 52.1362 6.76978 55.3343 9.96726C58.5318 13.1654 60.0868 16.917 60.0868 21.4351C60.0868 25.9547 58.5318 29.7055 55.3343 32.9037C52.1362 36.1019 48.3846 37.6561 43.8657 37.6561C39.3476 37.6561 35.5967 36.1012 32.3978 32.9037C29.1997 29.7062 27.6447 25.9547 27.6447 21.4351C27.6447 16.917 29.1997 13.1654 32.3978 9.96726Z" fill="#2FDF84"/>
<path d="M81.374 68.4366C81.2538 66.7024 81.0107 64.8106 80.6529 62.813C80.2916 60.8004 79.8265 58.8978 79.2697 57.1588C78.6939 55.3615 77.9123 53.5865 76.9447 51.8856C75.9418 50.1201 74.7631 48.5828 73.4403 47.3178C72.0572 45.9944 70.3637 44.9304 68.4054 44.1543C66.4539 43.3823 64.2913 42.9912 61.9779 42.9912C61.0694 42.9912 60.1907 43.3639 58.4938 44.4687C57.4495 45.1497 56.228 45.9374 54.8645 46.8086C53.6986 47.5514 52.1192 48.2474 50.1684 48.8775C48.2651 49.4934 46.3327 49.8058 44.4246 49.8058C42.518 49.8058 40.5855 49.4934 38.6808 48.8775C36.7321 48.2481 35.152 47.5521 33.9882 46.8093C32.6376 45.9462 31.4154 45.1586 30.3554 44.468C28.6599 43.3633 27.7813 42.9905 26.8727 42.9905C24.5587 42.9905 22.3967 43.3823 20.4459 44.155C18.4889 44.9297 16.7948 45.9938 15.4103 47.3185C14.0875 48.5842 12.9088 50.1208 11.9065 51.8856C10.9403 53.5865 10.1581 55.3608 9.58228 57.1595C9.02616 58.8984 8.56104 60.8004 8.1998 62.813C7.84128 64.8079 7.59887 66.7003 7.47868 68.4386C7.36053 70.1382 7.30078 71.907 7.30078 73.6942C7.30078 78.34 8.77764 82.1011 11.6899 84.8748C14.5663 87.6119 18.3715 88.9999 23.0003 88.9999H65.8544C70.4819 88.9999 74.2871 87.6119 77.1641 84.8748C80.077 82.1031 81.5539 78.3407 81.5539 73.6935C81.5532 71.9002 81.4928 70.1314 81.374 68.4366ZM73.568 81.0961C71.6674 82.905 69.1442 83.7843 65.8537 83.7843H23.0003C19.7091 83.7843 17.1859 82.905 15.286 81.0968C13.4221 79.3225 12.5163 76.9005 12.5163 73.6942C12.5163 72.0265 12.5713 70.3799 12.6813 68.7992C12.7886 67.2483 13.0079 65.5446 13.3332 63.7344C13.6543 61.9465 14.0631 60.2687 14.5493 58.7497C15.0158 57.2932 15.652 55.851 16.441 54.4618C17.194 53.1377 18.0605 52.0017 19.0165 51.0864C19.9108 50.2301 21.038 49.5294 22.3661 49.0038C23.5945 48.5177 24.9749 48.2515 26.4735 48.2114C26.6561 48.3085 26.9814 48.4939 27.5083 48.8375C28.5805 49.5362 29.8163 50.3333 31.1825 51.2059C32.7225 52.1877 34.7066 53.0745 37.077 53.8398C39.5004 54.6234 41.972 55.0213 44.4253 55.0213C46.8786 55.0213 49.3509 54.6234 51.7729 53.8405C54.1454 53.0739 56.1288 52.1877 57.6709 51.2045C59.069 50.3109 60.2701 49.5369 61.3423 48.8375C61.8692 48.4946 62.1945 48.3085 62.3771 48.2114C63.8764 48.2515 65.2568 48.5177 66.4859 49.0038C67.8133 49.5294 68.9405 50.2308 69.8348 51.0864C70.7908 52.001 71.6572 53.137 72.4103 54.4624C73.2 55.851 73.8369 57.2939 74.3027 58.7491C74.7896 60.2701 75.199 61.9472 75.5195 63.7337C75.8441 65.5474 76.0641 67.2517 76.1713 68.7998V68.8012C76.282 70.3758 76.3377 72.0218 76.3384 73.6942C76.3377 76.9012 75.4319 79.3225 73.568 81.0961Z" fill="#2FDF84"/>
</svg>
