<svg width="91" height="91" viewBox="0 0 91 91" fill="none" xmlns="http://www.w3.org/2000/svg">
<g clip-path="url(#clip0)">
<path d="M62.4913 91.0001H29.7114C28.1149 91.0001 26.8191 89.7043 26.8191 88.1077V61.1125H32.6038V85.2154H59.599V23.5121H32.6038V52.5551H26.8191V20.6198C26.8191 19.0232 28.1149 17.7274 29.7114 17.7274H62.4913C64.0879 17.7274 65.3836 19.0232 65.3836 20.6198V88.1077C65.3836 89.7043 64.0879 91.0001 62.4913 91.0001Z" fill="#2FDF84"/>
<path d="M59.749 21.5335L56.5482 11.9425H35.6501L32.4531 21.5335L26.9653 19.7017L30.8218 8.13234C31.219 6.95612 32.3219 6.15784 33.5676 6.15784H58.6345C59.8802 6.15784 60.9831 6.95612 61.3765 8.1362L65.2329 19.7056L59.749 21.5335Z" fill="#2FDF84"/>
<path d="M29.7115 91H6.57277C2.85129 91 -0.176025 87.9727 -0.176025 84.2512V43.7584C-0.176025 42.1619 1.11974 40.8661 2.71632 40.8661H29.7115C31.3081 40.8661 32.6039 42.1619 32.6039 43.7584V52.4355H26.8192V46.6508H5.60866V84.2512C5.60866 84.7834 6.04058 85.2153 6.57277 85.2153H26.8192V60.9929H32.6039V88.1077C32.6039 89.7042 31.3081 91 29.7115 91Z" fill="#2FDF84"/>
<path d="M5.45819 44.6723L-0.029541 42.8405L3.82691 31.2711C4.22413 30.0949 5.32707 29.2966 6.57271 29.2966H29.7114V35.0813H8.65905L5.45819 44.6723Z" fill="#2FDF84"/>
<path d="M85.6299 91H62.4912C60.8946 91 59.5989 89.7042 59.5989 88.1076V47.6149C59.5989 46.0183 60.8946 44.7225 62.4912 44.7225H89.4864C91.083 44.7225 92.3787 46.0183 92.3787 47.6149V84.2512C92.3787 87.9727 89.3514 91 85.6299 91ZM65.3836 85.2153H85.6299C86.1621 85.2153 86.5941 84.7834 86.5941 84.2512V50.5072H65.3836V85.2153Z" fill="#2FDF84"/>
<path d="M86.7447 48.5288L83.5438 38.9378H62.4915V33.1531H85.6302C86.8758 33.1531 87.9788 33.9514 88.3721 35.1314L92.2286 46.7008L86.7447 48.5288Z" fill="#2FDF84"/>
</g>
<defs>
<clipPath id="clip0">
<rect width="91" height="91" fill="white"/>
</clipPath>
</defs>
</svg>
