<svg width="512" height="512" viewBox="0 0 512 512" fill="none" xmlns="http://www.w3.org/2000/svg">
<path d="M256 512C397.385 512 512 397.385 512 256C512 114.615 397.385 0 256 0C114.615 0 0 114.615 0 256C0 397.385 114.615 512 256 512Z" fill="#2FDF84"/>
<path d="M512 256C512 397.44 397.36 512 256 512C175.52 512 103.68 474.88 56.7202 416.72C100.64 452.24 156.56 473.44 217.44 473.44C358.8 473.44 473.44 358.88 473.44 217.44C473.44 156.56 452.24 100.64 416.72 56.7202C474.8 103.68 512 175.52 512 256Z" fill="#48B47C"/>
<path d="M271.296 214.688C279.76 258.928 325.616 291.968 373.696 288.352C421.952 284.72 454.016 245.808 445.536 201.568C437.04 157.184 391.216 124.288 342.976 127.92C294.88 131.536 262.8 170.304 271.296 214.688Z" fill="white"/>
<path d="M336.8 242.144C358.741 242.144 376.528 224.357 376.528 202.416C376.528 180.475 358.741 162.688 336.8 162.688C314.859 162.688 297.072 180.475 297.072 202.416C297.072 224.357 314.859 242.144 336.8 242.144Z" fill="#0E5159"/>
<path d="M331.635 179.151C328.542 176.058 321.972 177.613 316.961 182.624C311.95 187.635 310.395 194.205 313.488 197.298C316.581 200.391 323.15 198.836 328.161 193.824C333.173 188.813 334.728 182.244 331.635 179.151Z" fill="white"/>
<path d="M240.704 214.688C232.24 258.928 186.384 291.968 138.304 288.352C90.048 284.72 57.984 245.808 66.464 201.568C74.96 157.184 120.784 124.288 169.024 127.92C217.12 131.536 249.2 170.304 240.704 214.688Z" fill="white"/>
<path d="M175.184 242.144C197.125 242.144 214.912 224.357 214.912 202.416C214.912 180.475 197.125 162.688 175.184 162.688C153.243 162.688 135.456 180.475 135.456 202.416C135.456 224.357 153.243 242.144 175.184 242.144Z" fill="#0E5159"/>
<path d="M170.023 179.129C166.93 176.036 160.361 177.591 155.35 182.602C150.338 187.613 148.783 194.183 151.876 197.276C154.969 200.369 161.539 198.814 166.55 193.802C171.561 188.791 173.116 182.222 170.023 179.129Z" fill="white"/>
<path d="M76.7842 127.472C76.7842 127.472 162.64 145.104 227.168 92.5439C214.448 144.96 164.32 156.608 76.7842 127.472Z" fill="#15AB89"/>
<path d="M435.216 127.472C435.216 127.472 349.36 145.104 284.832 92.5439C297.552 144.96 347.68 156.608 435.216 127.472Z" fill="#15AB89"/>
<path d="M173.104 409.776C190.224 378.096 220.944 356.976 256.144 356.976C291.184 356.976 321.904 377.936 338.864 409.456C344.624 420.176 360.784 413.936 357.744 402.096C346.704 357.776 307.024 322.416 256.144 322.416C205.104 322.416 165.264 357.936 154.224 402.256C151.344 414.096 167.344 420.336 173.104 409.776Z" fill="#15AB89"/>
<path d="M75.0078 251.36C76.6718 251.008 78.4958 250.736 80.8318 250.736C94.1118 250.736 94.1118 257.696 107.376 257.696C120.624 257.696 120.624 250.736 133.888 250.736C147.136 250.736 147.136 257.696 160.384 257.696C173.632 257.696 173.632 250.736 186.88 250.736C200.112 250.736 200.112 257.696 213.344 257.696C215.2 257.696 216.736 257.536 218.144 257.312C198.416 278.08 168.848 290.64 138.304 288.336C109.92 286.208 87.2318 271.824 75.0078 251.36Z" fill="#0E7ACC"/>
<path d="M69.6958 295.344C70.4958 304.592 76.3678 311.12 85.3278 311.12C94.5438 311.12 98.7998 299.824 96.1598 293.056C89.1358 275.152 85.0878 257.6 85.0878 257.6C85.0878 257.6 70.3518 281.04 69.6958 295.344Z" fill="#0E7ACC"/>
<path d="M73.9517 352.656C74.3997 357.856 77.7597 362.336 82.7997 362.336C87.9677 362.336 91.0077 356.464 88.8157 351.376C84.5277 341.456 82.5437 333.76 82.5437 333.76C82.5437 333.76 74.3197 344.624 73.9517 352.656Z" fill="#0E7ACC"/>
<path d="M86.4322 355.056C87.2322 355.536 86.9122 356.816 85.7922 358.096C84.6722 359.376 83.2322 359.856 82.4322 359.376C81.6322 358.896 81.9522 357.456 83.0722 356.336C84.1922 355.056 85.6322 354.416 86.4322 355.056Z" fill="white"/>
<path d="M90.1122 304.496C88.0322 306.736 85.4722 307.856 84.1922 306.896C82.7522 306.096 83.0722 303.536 85.1522 301.296C87.0722 299.056 89.7922 298.096 91.2322 299.056C92.5122 300.016 92.0322 302.416 90.1122 304.496Z" fill="white"/>
</svg>
