<svg width="1389" height="1389" viewBox="0 0 1389 1389" fill="none" xmlns="http://www.w3.org/2000/svg">
<circle cx="694.09" cy="694.09" r="689.09" stroke="#07F9A2" stroke-width="10"/>
<path d="M342.586 500.65V691H289.666V614.59H225.136V691H172.216V500.65H225.136V572.2H289.666V500.65H342.586ZM493.29 659.95H425.79L415.53 691H359.91L429.3 500.65H490.32L559.44 691H503.55L493.29 659.95ZM480.06 619.45L459.54 557.89L439.29 619.45H480.06ZM570.208 595.42C570.208 576.7 574.078 560.05 581.818 545.47C589.738 530.71 600.898 519.28 615.298 511.18C629.698 502.9 646.258 498.76 664.978 498.76C688.738 498.76 708.718 505.15 724.918 517.93C741.118 530.53 751.558 547.72 756.238 569.5H699.268C695.848 562.3 691.078 556.81 684.958 553.03C679.018 549.25 672.088 547.36 664.168 547.36C651.928 547.36 642.118 551.77 634.738 560.59C627.538 569.23 623.938 580.84 623.938 595.42C623.938 610.18 627.538 621.97 634.738 630.79C642.118 639.43 651.928 643.75 664.168 643.75C672.088 643.75 679.018 641.86 684.958 638.08C691.078 634.3 695.848 628.81 699.268 621.61H756.238C751.558 643.39 741.118 660.67 724.918 673.45C708.718 686.05 688.738 692.35 664.978 692.35C646.258 692.35 629.698 688.3 615.298 680.2C600.898 671.92 589.738 660.49 581.818 645.91C574.078 631.15 570.208 614.32 570.208 595.42ZM893.888 691L834.218 607.57V691H781.298V500.65H834.218V582.73L893.348 500.65H954.368L884.438 592.99L957.878 691H893.888ZM1097.63 659.95H1030.13L1019.87 691H964.246L1033.64 500.65H1094.66L1163.78 691H1107.89L1097.63 659.95ZM1084.4 619.45L1063.88 557.89L1043.63 619.45H1084.4Z" fill="#F4F4F4"/>
<path d="M926.879 895H884.129L812.629 786.75V895H769.879V719.5H812.629L884.129 828.25V719.5H926.879V895ZM1000.62 753.75V789.25H1057.87V822.25H1000.62V860.75H1065.37V895H957.867V719.5H1065.37V753.75H1000.62Z" fill="#F4F4F4"/>
<path d="M1178.33 807.96L1169.82 802.715L1166.59 807.955L1169.82 813.198L1178.33 807.96ZM1227.55 888V898H1245.44L1236.07 882.762L1227.55 888ZM1203.86 888L1195.34 893.232L1198.27 898H1203.86V888ZM1165.45 825.44L1173.98 820.208L1165.24 805.985L1156.82 820.393L1165.45 825.44ZM1128.88 888V898H1134.62L1137.52 893.047L1128.88 888ZM1105.65 888L1097.12 882.78L1087.81 898H1105.65V888ZM1154.64 807.96L1163.17 813.18L1166.37 807.955L1163.17 802.733L1154.64 807.96ZM1105.42 727.69V717.69H1087.56L1096.9 732.917L1105.42 727.69ZM1128.88 727.69L1137.4 722.449L1134.47 717.69H1128.88V727.69ZM1167.52 790.48L1159.01 795.721L1167.73 809.9L1176.15 795.536L1167.52 790.48ZM1204.32 727.69V717.69H1198.59L1195.7 722.634L1204.32 727.69ZM1227.78 727.69L1236.3 732.935L1245.69 717.69H1227.78V727.69ZM1169.82 813.198L1219.04 893.238L1236.07 882.762L1186.85 802.722L1169.82 813.198ZM1227.55 878H1203.86V898H1227.55V878ZM1212.39 882.768L1173.98 820.208L1156.93 830.672L1195.34 893.232L1212.39 882.768ZM1156.82 820.393L1120.25 882.953L1137.52 893.047L1174.09 830.487L1156.82 820.393ZM1128.88 878H1105.65V898H1128.88V878ZM1114.18 893.22L1163.17 813.18L1146.11 802.74L1097.12 882.78L1114.18 893.22ZM1163.17 802.733L1113.95 722.463L1096.9 732.917L1146.12 813.187L1163.17 802.733ZM1105.42 737.69H1128.88V717.69H1105.42V737.69ZM1120.37 732.931L1159.01 795.721L1176.04 785.239L1137.4 722.449L1120.37 732.931ZM1176.15 795.536L1212.95 732.746L1195.7 722.634L1158.9 785.424L1176.15 795.536ZM1204.32 737.69H1227.78V717.69H1204.32V737.69ZM1219.27 722.445L1169.82 802.715L1186.85 813.205L1236.3 732.935L1219.27 722.445Z" fill="#F4F4F4"/>
<path d="M707 732H427" stroke="#D6D6D6" stroke-width="15" stroke-linejoin="round"/>
<path d="M707 755H519" stroke="#07F9A2" stroke-width="9" stroke-linejoin="round"/>
<path d="M754 895H568" stroke="#07F9A2" stroke-width="9" stroke-linejoin="round"/>
<path d="M590 824H404" stroke="#07F9A2" stroke-width="9" stroke-linejoin="round"/>
<path d="M754 872H500" stroke="#D6D6D6" stroke-width="15" stroke-linejoin="round"/>
<path d="M658 800H380" stroke="#D6D6D6" stroke-width="15" stroke-linejoin="round"/>
</svg>
