<svg width="110" height="110" viewBox="0 0 110 110" fill="none" xmlns="http://www.w3.org/2000/svg">
<path d="M109.721 94.2567C109.238 91.9336 106.962 90.4425 104.639 90.9259C102.315 91.4098 100.824 93.6852 101.308 96.0085C101.587 97.3465 101.255 98.7183 100.398 99.7721C99.9013 100.382 98.7948 101.406 96.9605 101.406H77.5586C75.1854 101.406 73.2617 103.33 73.2617 105.703C73.2617 108.076 75.1854 110 77.5586 110H96.9605C100.898 110 104.581 108.248 107.065 105.194C109.561 102.125 110.529 98.1382 109.721 94.2567Z" fill="#F4F4F4"/>
<path d="M59.3629 58.6027C73.4797 59.903 86.3209 67.4691 94.3186 79.397C95.6399 81.368 98.3096 81.8948 100.28 80.5731C102.252 79.2514 102.778 76.5821 101.456 74.6112C94.4056 64.0954 84.1668 56.4504 72.4929 52.6086C79.6074 47.2742 84.219 38.775 84.219 29.2188C84.219 13.1074 71.1114 0 55.0003 0C38.8892 0 25.7816 13.1074 25.7816 29.2188C25.7816 38.7812 30.399 47.2854 37.5213 52.6189C30.9962 54.7669 24.8732 58.1075 19.5146 62.515C9.68934 70.5968 2.85795 81.8696 0.279181 94.2567C-0.529061 98.1383 0.43924 102.125 2.93529 105.194C5.41889 108.248 9.10195 110 13.0398 110H31.7972C34.1703 110 36.0941 108.076 36.0941 105.703C36.0941 103.33 34.1703 101.406 31.7972 101.406H13.0394C11.2051 101.406 10.0986 100.383 9.60211 99.7721C8.7451 98.7181 8.41338 97.3466 8.69203 96.0083C12.8995 75.7984 29.9573 60.7305 50.197 58.6502L41.9941 95.9705C41.6798 97.402 42.1163 98.8949 43.1525 99.9311L51.7467 108.526C52.5524 109.332 53.6455 109.785 54.7855 109.785C55.9252 109.785 57.0181 109.332 57.824 108.526L66.4173 99.9311C67.4535 98.8947 67.8901 97.402 67.5755 95.9707L59.3629 58.6027ZM34.3753 29.2188C34.3753 17.846 43.6276 8.59375 55.0003 8.59375C66.3731 8.59375 75.6253 17.846 75.6253 29.2188C75.6253 40.2482 66.9231 49.2828 56.024 49.8184C55.6833 49.8122 55.3421 49.8081 55.0003 49.8081C54.6649 49.8081 54.33 49.813 53.9951 49.819C43.0874 49.2929 34.3753 40.2544 34.3753 29.2188ZM54.7852 99.411L50.8929 95.518L54.7852 77.8095L58.6771 95.5182L54.7852 99.411Z" fill="#F4F4F4"/>
</svg>
