<svg width="130" height="130" viewBox="0 0 130 130" fill="none" xmlns="http://www.w3.org/2000/svg">
<g clip-path="url(#clip0)">
<path d="M126.31 31.0158C126.065 31.0073 121.045 30.8378 113.674 31.0007V15.8896C113.674 13.662 111.772 11.8953 109.533 12.0793C94.837 13.3062 76.1402 19.7998 65 31.6438C53.8598 19.7998 35.163 13.3062 20.4673 12.0793C18.2318 11.8973 16.3257 13.6562 16.3257 15.8896V31.4093C12.1382 31.2513 8.17724 31.1399 3.93695 31.0153C1.79832 30.9477 -1.52588e-05 32.6703 -1.52588e-05 34.837V104.469C-1.52588e-05 106.481 1.55922 108.149 3.56683 108.283C18.7763 109.307 44.2535 109.422 63.5002 117.631C65.2154 118.364 66.7552 117.522 66.5003 117.631C85.7465 109.423 111.219 109.308 126.434 108.283C128.441 108.149 130.001 106.481 130.001 104.469V34.837C130 32.7771 128.368 31.0876 126.31 31.0158ZM106.027 20.1901V85.7223C95.0012 88.1888 81.0277 93.452 68.8235 104.612C68.8235 101.246 68.8235 40.7092 68.8235 38.8887C77.1894 28.4504 93.0331 22.1589 106.027 20.1901ZM23.9728 20.1901C36.9669 22.1589 52.8106 28.4504 61.1765 38.8887V104.612C48.9723 93.452 34.9988 88.1888 23.9728 85.7223V20.1901ZM7.64705 100.871V38.7747C10.3849 38.8558 13.3133 38.9473 16.3257 39.0623V88.8388C16.3257 90.6784 17.6359 92.2572 19.4439 92.5965C28.1746 94.2353 39.5279 97.7922 50.1094 105.451C35.0128 102.065 19.2109 101.521 7.64705 100.871ZM122.353 100.871C110.808 101.52 94.993 102.064 79.8904 105.451C90.4718 97.7922 101.825 94.2353 110.556 92.5965C112.364 92.2572 113.674 90.6784 113.674 88.8388V38.6503C117.193 38.5716 120.191 38.5705 122.353 38.5902V100.871H122.353Z" fill="#F4F4F4"/>
<path d="M51.2626 47.6962C48.3011 45.6331 43.1957 43.1006 37.7471 42.1799C35.6659 41.8266 33.6919 43.2309 33.3399 45.3129C32.9881 47.3949 34.3909 49.3681 36.4731 49.7199C40.6798 50.4308 44.7144 52.454 46.8912 53.9706C48.6233 55.1774 51.0066 54.7522 52.2141 53.0191C53.4211 51.2865 52.9951 48.9032 51.2626 47.6962Z" fill="#F4F4F4"/>
<path d="M50.8797 69.2279C48.155 67.5641 42.8258 64.6445 37.7471 63.7862C35.6659 63.4334 33.6919 64.8369 33.3399 66.9192C32.9881 69.0015 34.3909 70.9745 36.4731 71.3262C40.4295 71.9948 45.0786 74.6453 46.8938 75.7541C48.6982 76.8556 51.0505 76.2841 52.1499 74.484C53.2505 72.6818 52.6819 70.3288 50.8797 69.2279Z" fill="#F4F4F4"/>
<path d="M83.1087 53.9706C85.2856 52.4539 89.3202 50.4308 93.5268 49.7199C95.6089 49.3681 97.0116 47.3949 96.6601 45.3129C96.3083 43.2306 94.3344 41.8258 92.2529 42.1799C86.8043 43.1003 81.6989 45.633 78.7374 47.6962C77.0049 48.9031 76.5789 51.2865 77.7859 53.0191C78.9936 54.7526 81.3777 55.1768 83.1087 53.9706Z" fill="#F4F4F4"/>
<path d="M92.2528 63.7864C87.1742 64.6444 81.8449 67.5641 79.1203 69.2281C77.3181 70.3287 76.7494 72.682 77.8501 74.4841C78.9508 76.286 81.3038 76.8547 83.1062 75.7543C84.9214 74.6455 89.5705 71.995 93.5268 71.3264C95.6089 70.9747 97.0116 69.0017 96.6601 66.9194C96.3081 64.8371 94.3344 63.4324 92.2528 63.7864Z" fill="#F4F4F4"/>
</g>
<defs>
<clipPath id="clip0">
<rect width="130" height="130" fill="white"/>
</clipPath>
</defs>
</svg>
