<svg width="110" height="110" viewBox="0 0 110 110" fill="none" xmlns="http://www.w3.org/2000/svg">
<path d="M110 37.1805C110 19.4984 95.6145 5.11292 77.9324 5.11292C72.8037 5.11292 67.9015 6.28867 63.3629 8.60774C60.2734 10.1861 57.4354 12.2831 55 14.7714C52.5648 12.2831 49.7268 10.1863 46.6371 8.60774C42.0982 6.28867 37.1963 5.11292 32.0676 5.11292C14.3855 5.11292 0 19.4984 0 37.1805C0 49.7042 6.61429 63.0058 19.6589 76.7154C30.5507 88.1627 43.8852 97.7048 53.1536 103.694L55 104.887L56.8464 103.694C58.9142 102.358 60.972 100.982 62.988 99.5875C67.5606 102.53 72.9989 104.238 78.8289 104.238C95.0155 104.238 108.184 91.0696 108.184 74.8831C108.184 69.1193 106.513 63.7388 103.632 59.1987C107.858 51.6604 110 44.2623 110 37.1805ZM55 96.7733C46.1789 90.9526 34.3223 82.2558 24.5883 72.0254C12.7874 59.6232 6.80412 47.8997 6.80412 37.1805C6.80412 23.2502 18.1373 11.917 32.0676 11.917C40.0876 11.917 47.4547 15.601 52.2799 22.0241L55 25.645L57.7201 22.0241C62.5453 15.601 69.9126 11.917 77.9326 11.917C91.8629 11.917 103.196 23.2502 103.196 37.1805C103.196 42.3694 101.766 47.8501 98.9417 53.5218C93.6839 48.5688 86.6054 45.5283 78.8292 45.5283C62.6426 45.5283 49.4741 58.697 49.4741 74.8835C49.4741 82.6972 52.5433 89.8068 57.5386 95.0723C56.6967 95.6436 55.8507 96.212 55 96.7733ZM78.8289 97.4344C66.3942 97.4344 56.278 87.3181 56.278 74.8833C56.278 62.4485 66.3944 52.3322 78.8289 52.3322C91.2635 52.3322 101.38 62.4485 101.38 74.8833C101.38 87.3181 91.2637 97.4344 78.8289 97.4344Z" fill="#F4F4F4"/>
<path d="M82.231 60.9087H75.4269V71.4814H64.8542V78.2855H75.4269V88.858H82.231V78.2855H92.8037V71.4814H82.231V60.9087Z" fill="#F4F4F4"/>
</svg>
