<svg width="239" height="38" viewBox="0 0 239 38" fill="none" xmlns="http://www.w3.org/2000/svg">
<path d="M16.0156 19.8438H6.67188V26.8438H17.5938V30H2.71875V7.25H17.4844V10.4375H6.67188V16.7188H16.0156V19.8438ZM37.5625 10.4375H30.4688V30H26.5469V10.4375H19.5156V7.25H37.5625V10.4375ZM53.8594 19.8438H44.5156V26.8438H55.4375V30H40.5625V7.25H55.3281V10.4375H44.5156V16.7188H53.8594V19.8438ZM76.0156 22.5938C75.7865 25.0208 74.8906 26.9167 73.3281 28.2812C71.7656 29.6354 69.6875 30.3125 67.0938 30.3125C65.2812 30.3125 63.6823 29.8854 62.2969 29.0312C60.9219 28.1667 59.8594 26.9427 59.1094 25.3594C58.3594 23.776 57.9688 21.9375 57.9375 19.8438V17.7188C57.9375 15.5729 58.3177 13.6823 59.0781 12.0469C59.8385 10.4115 60.9271 9.15104 62.3438 8.26562C63.7708 7.38021 65.4167 6.9375 67.2812 6.9375C69.7917 6.9375 71.8125 7.61979 73.3438 8.98438C74.875 10.349 75.7656 12.276 76.0156 14.7656H72.0781C71.8906 13.1302 71.4115 11.9531 70.6406 11.2344C69.8802 10.5052 68.7604 10.1406 67.2812 10.1406C65.5625 10.1406 64.2396 10.7708 63.3125 12.0312C62.3958 13.2812 61.9271 15.1198 61.9062 17.5469V19.5625C61.9062 22.0208 62.3438 23.8958 63.2188 25.1875C64.1042 26.4792 65.3958 27.125 67.0938 27.125C68.6458 27.125 69.8125 26.776 70.5938 26.0781C71.375 25.3802 71.8698 24.2188 72.0781 22.5938H76.0156ZM104.172 7.25V22.4531C104.172 24.8698 103.396 26.7865 101.844 28.2031C100.302 29.6094 98.2448 30.3125 95.6719 30.3125C93.0677 30.3125 91 29.6198 89.4688 28.2344C87.9375 26.8385 87.1719 24.9062 87.1719 22.4375V7.25H91.1094V22.4688C91.1094 23.9896 91.4948 25.151 92.2656 25.9531C93.0365 26.7552 94.1719 27.1562 95.6719 27.1562C98.7135 27.1562 100.234 25.5521 100.234 22.3438V7.25H104.172ZM112.578 30H108.641V7.25H112.578V30ZM125.797 21.2344H121.391V30H117.438V7.25H125.438C128.062 7.25 130.089 7.83854 131.516 9.01562C132.943 10.1927 133.656 11.8958 133.656 14.125C133.656 15.6458 133.286 16.9219 132.547 17.9531C131.818 18.974 130.797 19.7604 129.484 20.3125L134.594 29.7969V30H130.359L125.797 21.2344ZM121.391 18.0625H125.453C126.786 18.0625 127.828 17.7292 128.578 17.0625C129.328 16.3854 129.703 15.4635 129.703 14.2969C129.703 13.0781 129.354 12.1354 128.656 11.4688C127.969 10.8021 126.938 10.4583 125.562 10.4375H121.391V18.0625ZM150.141 24.7031H141.328L139.484 30H135.375L143.969 7.25H147.516L156.125 30H152L150.141 24.7031ZM142.438 21.5156H149.031L145.734 12.0781L142.438 21.5156ZM162.672 21.5469V30H158.719V7.25H167.422C169.964 7.25 171.979 7.91146 173.469 9.23438C174.969 10.5573 175.719 12.3073 175.719 14.4844C175.719 16.7135 174.984 18.4479 173.516 19.6875C172.057 20.9271 170.01 21.5469 167.375 21.5469H162.672ZM162.672 18.375H167.422C168.828 18.375 169.901 18.0469 170.641 17.3906C171.38 16.724 171.75 15.7656 171.75 14.5156C171.75 13.2865 171.375 12.3073 170.625 11.5781C169.875 10.8385 168.844 10.4583 167.531 10.4375H162.672V18.375ZM195.828 7.25V22.4531C195.828 24.8698 195.052 26.7865 193.5 28.2031C191.958 29.6094 189.901 30.3125 187.328 30.3125C184.724 30.3125 182.656 29.6198 181.125 28.2344C179.594 26.8385 178.828 24.9062 178.828 22.4375V7.25H182.766V22.4688C182.766 23.9896 183.151 25.151 183.922 25.9531C184.693 26.7552 185.828 27.1562 187.328 27.1562C190.37 27.1562 191.891 25.5521 191.891 22.3438V7.25H195.828ZM208.422 21.2344H204.016V30H200.062V7.25H208.062C210.688 7.25 212.714 7.83854 214.141 9.01562C215.568 10.1927 216.281 11.8958 216.281 14.125C216.281 15.6458 215.911 16.9219 215.172 17.9531C214.443 18.974 213.422 19.7604 212.109 20.3125L217.219 29.7969V30H212.984L208.422 21.2344ZM204.016 18.0625H208.078C209.411 18.0625 210.453 17.7292 211.203 17.0625C211.953 16.3854 212.328 15.4635 212.328 14.2969C212.328 13.0781 211.979 12.1354 211.281 11.4688C210.594 10.8021 209.562 10.4583 208.188 10.4375H204.016V18.0625ZM236.672 7.25V22.4531C236.672 24.8698 235.896 26.7865 234.344 28.2031C232.802 29.6094 230.745 30.3125 228.172 30.3125C225.568 30.3125 223.5 29.6198 221.969 28.2344C220.438 26.8385 219.672 24.9062 219.672 22.4375V7.25H223.609V22.4688C223.609 23.9896 223.995 25.151 224.766 25.9531C225.536 26.7552 226.672 27.1562 228.172 27.1562C231.214 27.1562 232.734 25.5521 232.734 22.3438V7.25H236.672Z" fill="#B7B7B7"/>
</svg>
