<svg width="309" height="81" viewBox="0 0 309 81" fill="none" xmlns="http://www.w3.org/2000/svg">
<path fill-rule="evenodd" clip-rule="evenodd" d="M41.9113 41.9111V80.6995L80.5353 41.9111H41.9113Z" fill="url(#paint0_linear)"/>
<path fill-rule="evenodd" clip-rule="evenodd" d="M0 38.7884L40.2676 0L80.5353 38.7884H0Z" fill="url(#paint1_linear)"/>
<path fill-rule="evenodd" clip-rule="evenodd" d="M0 38.7884L40.2676 0V24.6536L0 38.7884Z" fill="#B7B7B7"/>
<path fill-rule="evenodd" clip-rule="evenodd" d="M40.2676 24.6536V0L80.5353 38.7884L40.2676 24.6536Z" fill="url(#paint2_linear)"/>
<path fill-rule="evenodd" clip-rule="evenodd" d="M41.9113 41.9111V80.6995L54.5668 54.5667L41.9113 41.9111Z" fill="url(#paint3_linear)"/>
<path fill-rule="evenodd" clip-rule="evenodd" d="M41.9113 41.9111L54.5668 54.5667L80.5353 41.9111H41.9113Z" fill="#B7B7B7"/>
<path fill-rule="evenodd" clip-rule="evenodd" d="M71.9887 45.5267H46.0202L41.9113 42.0752L46.0202 46.0198H72.1531L80.5353 42.0752L71.9887 45.5267Z" fill="url(#paint4_linear)"/>
<path fill-rule="evenodd" clip-rule="evenodd" d="M38.6241 41.9111V80.6995L0 41.9111H38.6241Z" fill="url(#paint5_linear)"/>
<path fill-rule="evenodd" clip-rule="evenodd" d="M38.6241 41.9111V80.6995L26.1329 54.5667L38.6241 41.9111Z" fill="url(#paint6_linear)"/>
<path fill-rule="evenodd" clip-rule="evenodd" d="M38.6241 41.9111L25.9685 54.5667L0 41.9111H38.6241Z" fill="#B7B7B7"/>
<path fill-rule="evenodd" clip-rule="evenodd" d="M39.5 8L12 34H67L39.5 8Z" fill="url(#paint7_linear)"/>
<path fill-rule="evenodd" clip-rule="evenodd" d="M46.0202 46.0195V72.1524L72.1531 46.0195H46.0202Z" fill="url(#paint8_linear)"/>
<path fill-rule="evenodd" clip-rule="evenodd" d="M34.6795 72.1524V46.0195H8.38226L34.6795 72.1524Z" fill="url(#paint9_linear)"/>
<path d="M13.1486 34.1859L4.10895 37.3087L12.9843 33.6928L40.2676 7.88867L13.1486 34.1859Z" fill="url(#paint10_linear)"/>
<path fill-rule="evenodd" clip-rule="evenodd" d="M8.5466 45.5267H34.5151L38.6241 42.0752L34.6795 46.0198H8.38224L0 42.0752L8.5466 45.5267Z" fill="url(#paint11_linear)"/>
<path fill-rule="evenodd" clip-rule="evenodd" d="M114.393 27.4485H126.391L127.87 20.2168H95.4918L94.0126 27.4485H106.011L99.1077 60.4844H107.326L114.393 27.4485Z" fill="#B7B7B7"/>
<path fill-rule="evenodd" clip-rule="evenodd" d="M158.934 20.2168H129.514L121.132 60.4844H151.373L152.853 53.417H130.829L132.965 42.8982H152.36L153.839 35.8308H134.445L136.252 27.4485H157.29L158.934 20.2168Z" fill="#B7B7B7"/>
<path fill-rule="evenodd" clip-rule="evenodd" d="M194.271 33.3655C195.093 27.4486 191.97 19.0664 180.136 19.0664C169.946 19.0664 160.249 26.2981 157.29 40.2685C154.332 54.0746 160.413 61.3063 171.096 61.3063C181.122 61.3063 188.025 55.2251 191.477 46.5141H183.094C181.122 51.4449 177.342 54.0746 172.74 54.0746C165.673 54.0746 164.193 47.5003 165.673 40.4329C168.138 29.0922 174.548 26.4625 178.492 26.4625C185.395 26.4625 185.724 31.0645 185.889 33.3655H194.271V33.3655Z" fill="#B7B7B7"/>
<path fill-rule="evenodd" clip-rule="evenodd" d="M218.431 48.322L208.406 20.2168H199.695L191.312 60.4844H199.037L205.118 31.8862L215.309 60.4844H223.691L232.237 20.2168H224.348L218.431 48.322Z" fill="#B7B7B7"/>
<path fill-rule="evenodd" clip-rule="evenodd" d="M244.564 20.2168H236.182L227.8 60.4844H236.018L244.564 20.2168Z" fill="#B7B7B7"/>
<path fill-rule="evenodd" clip-rule="evenodd" d="M241.113 48.1574C240.126 53.0881 240.784 61.6347 255.247 61.6347C258.699 61.6347 271.19 60.4842 273.655 48.4861C275.135 41.2544 270.697 38.9534 265.438 37.6385L256.234 35.1732C254.59 34.8444 252.289 34.187 252.946 30.8999C253.768 27.284 257.713 26.1335 260.836 26.1335C268.067 26.1335 267.903 30.4068 267.739 32.2147H275.792C276.778 27.284 275.135 19.2305 262.972 19.2305C249.988 19.2305 246.043 27.1196 245.057 31.5573C243.249 40.4326 249.166 41.9118 255.247 43.391L259.356 44.3772C263.301 45.3633 266.259 46.1851 265.602 49.3079C264.78 53.5812 260.178 54.5674 256.234 54.5674C249.002 54.5674 248.673 50.2941 249.166 47.9931H241.113V48.1574Z" fill="#B7B7B7"/>
<path fill-rule="evenodd" clip-rule="evenodd" d="M284.503 52.2665H299.131L299.953 60.4844H308.992L303.404 20.2168H293.871L271.19 60.4844H279.901L284.503 52.2665ZM296.666 29.4208L298.309 45.3635H288.119L296.666 29.4208Z" fill="#B7B7B7"/>
<defs>
<linearGradient id="paint0_linear" x1="41.8848" y1="41.9882" x2="66.8298" y2="66.9333" gradientUnits="userSpaceOnUse">
<stop stop-color="#B7B7B7"/>
</linearGradient>
<linearGradient id="paint1_linear" x1="20.1147" y1="18.5829" x2="72.1489" y2="70.6171" gradientUnits="userSpaceOnUse">
<stop stop-color="#B7B7B7"/>
</linearGradient>
<linearGradient id="paint2_linear" x1="34.5169" y1="5.813" x2="85.4972" y2="56.7931" gradientUnits="userSpaceOnUse">
<stop offset="1" stop-color="#B7B7B7"/>
</linearGradient>
<linearGradient id="paint3_linear" x1="32.2395" y1="51.6334" x2="57.1847" y2="76.5784" gradientUnits="userSpaceOnUse">
<stop stop-color="#B7B7B7"/>
</linearGradient>
<linearGradient id="paint4_linear" x1="41.9016" y1="44.0299" x2="80.519" y2="44.0299" gradientUnits="userSpaceOnUse">
<stop stop-color="#ADADAD"/>
</linearGradient>
<linearGradient id="paint5_linear" x1="9.69973" y1="32.3332" x2="59.5823" y2="82.2159" gradientUnits="userSpaceOnUse">
<stop stop-color="#B7B7B7"/>
</linearGradient>
<linearGradient id="paint6_linear" x1="28.9908" y1="51.6243" x2="53.961" y2="76.5944" gradientUnits="userSpaceOnUse">
<stop stop-color="#B7B7B7"/>
</linearGradient>
<linearGradient id="paint7_linear" x1="25.7685" y1="20.5598" x2="60.3157" y2="55.9928" gradientUnits="userSpaceOnUse">
<stop stop-color="#ADADAD"/>
</linearGradient>
<linearGradient id="paint8_linear" x1="23.7124" y1="23.8227" x2="58.6871" y2="58.7975" gradientUnits="userSpaceOnUse">
<stop stop-color="#ADADAD"/>
<stop offset="1" stop-color="#ADADAD"/>
</linearGradient>
<linearGradient id="paint9_linear" x1="11.4691" y1="36.0095" x2="46.825" y2="71.3655" gradientUnits="userSpaceOnUse">
<stop stop-color="#ADADAD"/>
<stop offset="1" stop-color="#ADADAD"/>
</linearGradient>
<linearGradient id="paint10_linear" x1="5.81449" y1="38.9452" x2="38.5667" y2="6.193" gradientUnits="userSpaceOnUse">
<stop stop-color="#ADADAD"/>
</linearGradient>
<linearGradient id="paint11_linear" x1="0.0378023" y1="44.0299" x2="38.6554" y2="44.0299" gradientUnits="userSpaceOnUse">
<stop stop-color="#ADADAD"/>
</linearGradient>
</defs>
</svg>
