<svg width="300" height="47" viewBox="0 0 300 47" fill="none" xmlns="http://www.w3.org/2000/svg">
<path fill-rule="evenodd" clip-rule="evenodd" d="M263.203 0.120605C250.585 0.120605 238.282 1.27697 226.267 3.51943L227.921 13.0056C237.855 11.1496 247.809 10.0879 258.184 9.81909V45.6221H268.047V9.81451C278.395 10.0727 288.444 11.145 298.352 12.9781L300 3.49193C288.043 1.27391 275.764 0.120605 263.203 0.120605Z" fill="#B7B7B7"/>
<path fill-rule="evenodd" clip-rule="evenodd" d="M88.3499 45.7153H98.2325V1.79443H88.3499V45.7153Z" fill="#B7B7B7"/>
<path fill-rule="evenodd" clip-rule="evenodd" d="M0 3.61126L1.65215 13.096C11.5896 11.243 21.54 10.1783 31.9215 9.91098V45.7158H41.7854V9.90792C52.1294 10.1661 62.1821 11.2369 72.0821 13.07L73.7343 3.58376C61.777 1.36267 49.4983 0.212402 36.9385 0.212402C24.3181 0.212402 12.0134 1.37489 0 3.61126Z" fill="#B7B7B7"/>
<path fill-rule="evenodd" clip-rule="evenodd" d="M201.775 45.7153H211.653V1.79443H201.775V45.7153Z" fill="#B7B7B7"/>
<path fill-rule="evenodd" clip-rule="evenodd" d="M150.02 33.0838C138.876 22.4138 128.903 10.1369 121.971 0L114.3 5.92691C122.471 18.5384 137.694 35.6027 150.024 46.4575L150.114 46.3704C162.413 35.5355 177.591 18.517 185.75 5.92691L178.075 0C171.143 10.1369 161.173 22.4138 150.02 33.0838Z" fill="#B7B7B7"/>
</svg>
