<svg width="294" height="25" viewBox="0 0 294 25" fill="none" xmlns="http://www.w3.org/2000/svg">
<path d="M10.625 19.0469L16.4062 1.25H20.75L12.5625 24H8.73438L0.578125 1.25H4.90625L10.625 19.0469ZM27.5 24H23.5625V1.25H27.5V24ZM49.7188 16.5938C49.4896 19.0208 48.5938 20.9167 47.0312 22.2812C45.4688 23.6354 43.3906 24.3125 40.7969 24.3125C38.9844 24.3125 37.3854 23.8854 36 23.0312C34.625 22.1667 33.5625 20.9427 32.8125 19.3594C32.0625 17.776 31.6719 15.9375 31.6406 13.8438V11.7188C31.6406 9.57292 32.0208 7.68229 32.7812 6.04688C33.5417 4.41146 34.6302 3.15104 36.0469 2.26562C37.474 1.38021 39.1198 0.9375 40.9844 0.9375C43.4948 0.9375 45.5156 1.61979 47.0469 2.98438C48.5781 4.34896 49.4688 6.27604 49.7188 8.76562H45.7812C45.5938 7.13021 45.1146 5.95312 44.3438 5.23438C43.5833 4.50521 42.4635 4.14062 40.9844 4.14062C39.2656 4.14062 37.9427 4.77083 37.0156 6.03125C36.099 7.28125 35.6302 9.11979 35.6094 11.5469V13.5625C35.6094 16.0208 36.0469 17.8958 36.9219 19.1875C37.8073 20.4792 39.099 21.125 40.7969 21.125C42.349 21.125 43.5156 20.776 44.2969 20.0781C45.0781 19.3802 45.5729 18.2188 45.7812 16.5938H49.7188ZM66.5625 13.8438H57.2188V20.8438H68.1406V24H53.2656V1.25H68.0312V4.4375H57.2188V10.7188H66.5625V13.8438ZM89.4062 24H85.4531L75.3125 7.85938V24H71.3594V1.25H75.3125L85.4844 17.4531V1.25H89.4062V24ZM110.047 4.4375H102.953V24H99.0312V4.4375H92V1.25H110.047V4.4375ZM126.344 13.8438H117V20.8438H127.922V24H113.047V1.25H127.812V4.4375H117V10.7188H126.344V13.8438ZM143.062 20.8438H153.391V24H139.109V1.25H143.062V20.8438ZM169.719 13.8438H160.375V20.8438H171.297V24H156.422V1.25H171.188V4.4375H160.375V10.7188H169.719V13.8438ZM178.469 15.5469V24H174.516V1.25H183.219C185.76 1.25 187.776 1.91146 189.266 3.23438C190.766 4.55729 191.516 6.30729 191.516 8.48438C191.516 10.7135 190.781 12.4479 189.312 13.6875C187.854 14.9271 185.807 15.5469 183.172 15.5469H178.469ZM178.469 12.375H183.219C184.625 12.375 185.698 12.0469 186.438 11.3906C187.177 10.724 187.547 9.76562 187.547 8.51562C187.547 7.28646 187.172 6.30729 186.422 5.57812C185.672 4.83854 184.641 4.45833 183.328 4.4375H178.469V12.375ZM213.141 13.2188C213.141 15.4479 212.755 17.4062 211.984 19.0938C211.214 20.7708 210.109 22.0625 208.672 22.9688C207.245 23.8646 205.599 24.3125 203.734 24.3125C201.891 24.3125 200.245 23.8646 198.797 22.9688C197.359 22.0625 196.245 20.776 195.453 19.1094C194.672 17.4427 194.276 15.5208 194.266 13.3438V12.0625C194.266 9.84375 194.656 7.88542 195.438 6.1875C196.229 4.48958 197.339 3.19271 198.766 2.29688C200.203 1.39062 201.849 0.9375 203.703 0.9375C205.557 0.9375 207.198 1.38542 208.625 2.28125C210.062 3.16667 211.172 4.44792 211.953 6.125C212.734 7.79167 213.13 9.73438 213.141 11.9531V13.2188ZM209.188 12.0312C209.188 9.51042 208.708 7.57812 207.75 6.23438C206.802 4.89062 205.453 4.21875 203.703 4.21875C201.995 4.21875 200.656 4.89062 199.688 6.23438C198.729 7.56771 198.24 9.45833 198.219 11.9062V13.2188C198.219 15.7188 198.703 17.651 199.672 19.0156C200.651 20.3802 202.005 21.0625 203.734 21.0625C205.484 21.0625 206.828 20.3958 207.766 19.0625C208.714 17.7292 209.188 15.7812 209.188 13.2188V12.0312ZM225.438 15.2344H221.031V24H217.078V1.25H225.078C227.703 1.25 229.729 1.83854 231.156 3.01562C232.583 4.19271 233.297 5.89583 233.297 8.125C233.297 9.64583 232.927 10.9219 232.188 11.9531C231.458 12.974 230.438 13.7604 229.125 14.3125L234.234 23.7969V24H230L225.438 15.2344ZM221.031 12.0625H225.094C226.427 12.0625 227.469 11.7292 228.219 11.0625C228.969 10.3854 229.344 9.46354 229.344 8.29688C229.344 7.07812 228.995 6.13542 228.297 5.46875C227.609 4.80208 226.578 4.45833 225.203 4.4375H221.031V12.0625ZM249.781 18.7031H240.969L239.125 24H235.016L243.609 1.25H247.156L255.766 24H251.641L249.781 18.7031ZM242.078 15.5156H248.672L245.375 6.07812L242.078 15.5156ZM275.375 16.5938C275.146 19.0208 274.25 20.9167 272.688 22.2812C271.125 23.6354 269.047 24.3125 266.453 24.3125C264.641 24.3125 263.042 23.8854 261.656 23.0312C260.281 22.1667 259.219 20.9427 258.469 19.3594C257.719 17.776 257.328 15.9375 257.297 13.8438V11.7188C257.297 9.57292 257.677 7.68229 258.438 6.04688C259.198 4.41146 260.286 3.15104 261.703 2.26562C263.13 1.38021 264.776 0.9375 266.641 0.9375C269.151 0.9375 271.172 1.61979 272.703 2.98438C274.234 4.34896 275.125 6.27604 275.375 8.76562H271.438C271.25 7.13021 270.771 5.95312 270 5.23438C269.24 4.50521 268.12 4.14062 266.641 4.14062C264.922 4.14062 263.599 4.77083 262.672 6.03125C261.755 7.28125 261.286 9.11979 261.266 11.5469V13.5625C261.266 16.0208 261.703 17.8958 262.578 19.1875C263.464 20.4792 264.755 21.125 266.453 21.125C268.005 21.125 269.172 20.776 269.953 20.0781C270.734 19.3802 271.229 18.2188 271.438 16.5938H275.375ZM292.219 13.8438H282.875V20.8438H293.797V24H278.922V1.25H293.688V4.4375H282.875V10.7188H292.219V13.8438Z" fill="#B7B7B7"/>
</svg>
