<svg width="50" height="50" viewBox="0 0 50 50" fill="none" xmlns="http://www.w3.org/2000/svg">
<path fill-rule="evenodd" clip-rule="evenodd" d="M45.3125 6.25H40.625V3.125H37.5V6.25H12.5V3.125H9.375V6.25H4.6875L3.125 7.8125V45.3125L4.6875 46.875H45.3125L46.875 45.3125V7.8125L45.3125 6.25ZM43.75 43.75H6.25V15.625H43.75V43.75ZM43.75 12.5H6.25V9.375H43.75V12.5ZM12.5 25H9.375V28.125H12.5V25ZM9.375 31.25H12.5V34.375H9.375V31.25ZM12.5 37.5H9.375V40.625H12.5V37.5ZM18.75 25H21.875V28.125H18.75V25ZM21.875 31.25H18.75V34.375H21.875V31.25ZM18.75 37.5H21.875V40.625H18.75V37.5ZM21.875 18.75H18.75V21.875H21.875V18.75ZM28.125 25H31.25V28.125H28.125V25ZM31.25 31.25H28.125V34.375H31.25V31.25ZM28.125 37.5H31.25V40.625H28.125V37.5ZM31.25 18.75H28.125V21.875H31.25V18.75ZM37.5 25H40.625V28.125H37.5V25ZM40.625 31.25H37.5V34.375H40.625V31.25ZM37.5 18.75H40.625V21.875H37.5V18.75Z" fill="#F4F4F4"/>
</svg>
