<svg width="50" height="53" viewBox="0 0 50 53" fill="none" xmlns="http://www.w3.org/2000/svg">
<path d="M43.243 24.4715C44.7072 23.3813 45.6767 21.5678 45.6767 19.5237C45.6767 16.1798 43.1243 13.4753 39.9683 13.4753C36.8124 13.4753 34.26 16.1798 34.26 19.5237C34.26 21.5678 35.2196 23.3813 36.6937 24.4715C35.4373 24.9327 34.2897 25.6455 33.3201 26.568C31.9846 25.3625 30.4116 24.44 28.6901 23.8949C30.7776 22.5532 32.1824 20.1107 32.1824 17.3329C32.1824 13.0979 28.9474 9.67014 24.9505 9.67014C20.9537 9.67014 17.7186 13.1084 17.7186 17.3329C17.7186 20.1107 19.1136 22.5532 21.2109 23.8949C19.5093 24.44 17.9561 25.352 16.6304 26.5365C15.6609 25.635 14.533 24.9327 13.2964 24.482C14.7606 23.3918 15.7301 21.5783 15.7301 19.5342C15.7301 16.1903 13.1777 13.4858 10.0218 13.4858C6.86585 13.4858 4.31342 16.1903 4.31342 19.5342C4.31342 21.5783 5.27305 23.3918 6.74713 24.482C2.81955 25.9181 0 29.87 0 34.5138V35.2056C0 35.2266 0.0197863 35.2475 0.0395726 35.2475H12.1389C12.0696 35.8241 12.0301 36.4216 12.0301 37.0191V37.7319C12.0301 40.8138 14.3846 43.3086 17.2932 43.3086H32.6276C35.5362 43.3086 37.8908 40.8138 37.8908 37.7319V37.0191C37.8908 36.4216 37.8512 35.8241 37.782 35.2475H49.9604C49.9802 35.2475 50 35.2266 50 35.2056V34.5138C49.9802 29.8595 47.1706 25.9076 43.243 24.4715ZM35.8429 19.5132C35.8429 17.1023 37.6929 15.142 39.9683 15.142C42.2438 15.142 44.0938 17.1023 44.0938 19.5132C44.0938 21.8928 42.2833 23.832 40.0475 23.8845C40.0178 23.8845 39.998 23.8845 39.9683 23.8845C39.9387 23.8845 39.9189 23.8845 39.8892 23.8845C37.6435 23.8425 35.8429 21.9033 35.8429 19.5132ZM19.2818 17.3329C19.2818 14.0309 21.8144 11.3473 24.9307 11.3473C28.0471 11.3473 30.5797 14.0309 30.5797 17.3329C30.5797 20.5196 28.2153 23.1297 25.2572 23.3079C25.1484 23.3079 25.0396 23.3079 24.9307 23.3079C24.8219 23.3079 24.7131 23.3079 24.6043 23.3079C21.6462 23.1297 19.2818 20.5196 19.2818 17.3329ZM5.86664 19.5132C5.86664 17.1023 7.71666 15.142 9.99209 15.142C12.2675 15.142 14.1175 17.1023 14.1175 19.5132C14.1175 21.8928 12.3071 23.832 10.0712 23.8845C10.0416 23.8845 10.0218 23.8845 9.99209 23.8845C9.96241 23.8845 9.94262 23.8845 9.91294 23.8845C7.67709 23.8425 5.86664 21.9033 5.86664 19.5132ZM12.4159 33.5598H1.60269C2.04788 29.0943 5.60942 25.5931 9.93273 25.5617C9.95251 25.5617 9.9723 25.5617 9.99209 25.5617C10.0119 25.5617 10.0317 25.5617 10.0514 25.5617C12.1092 25.5722 13.9889 26.3793 15.4432 27.6896C14.0186 29.3249 12.96 31.3375 12.4159 33.5598ZM36.2881 37.7319C36.2881 39.8808 34.6359 41.6314 32.6078 41.6314H17.2734C15.2454 41.6314 13.5932 39.8808 13.5932 37.7319V37.0191C13.5932 30.5094 18.5002 25.1843 24.6043 24.9956C24.7131 25.0061 24.8318 25.0061 24.9406 25.0061C25.0495 25.0061 25.1682 25.0061 25.277 24.9956C31.3811 25.1843 36.2881 30.5094 36.2881 37.0191V37.7319ZM37.4654 33.5598C36.9213 31.348 35.8825 29.3668 34.4678 27.7316C35.9319 26.3898 37.8314 25.5826 39.909 25.5617C39.9288 25.5617 39.9486 25.5617 39.9683 25.5617C39.9881 25.5617 40.0079 25.5617 40.0277 25.5617C44.351 25.5931 47.9125 29.0943 48.3577 33.5598H37.4654Z" fill="#F4F4F4"/>
</svg>
