<svg width="50" height="50" viewBox="0 0 50 50" fill="none" xmlns="http://www.w3.org/2000/svg">
<path fill-rule="evenodd" clip-rule="evenodd" d="M13.0646 16.6328C13.5769 16.8022 14.1293 16.5245 14.2982 16.0122C15.8314 11.3754 20.1446 8.26035 25.0317 8.26035C31.2637 8.26035 36.3342 13.3305 36.3342 19.5629C36.3342 24.3797 34.1766 27.2575 32.4432 29.57C31.1821 31.2519 30.093 32.7049 30.093 34.4669C30.093 34.5829 30.0915 34.6977 30.0888 34.8118H26.0082V32.5684C26.0082 32.029 25.571 31.5918 25.0317 31.5918C24.4923 31.5918 24.0551 32.029 24.0551 32.5684V34.8118H19.9741C19.9715 34.6977 19.9699 34.5829 19.9699 34.4669C19.9699 32.7045 18.8808 31.2519 17.6197 29.5696C16.3429 27.8664 14.896 25.9357 14.1785 23.1926C14.0419 22.6707 13.5078 22.3583 12.9864 22.4949C12.4649 22.6311 12.1525 23.1651 12.289 23.6866C13.1035 26.8005 14.7411 28.9856 16.0572 30.7411C17.152 32.2018 18.0168 33.3553 18.0168 34.4669C18.0168 34.9346 18.0366 35.3909 18.0752 35.8261V44.0865C18.0752 44.1128 18.0771 44.1383 18.079 44.1639C18.0798 44.17 18.0794 44.1765 18.0801 44.1826C18.0836 44.2188 18.0893 44.2539 18.0965 44.289C18.4357 45.8797 19.3039 47.327 20.5421 48.3627C21.804 49.4186 23.3986 50 25.0317 50C26.6647 50 28.2589 49.4186 29.5212 48.3627C30.759 47.327 31.6276 45.8805 31.9664 44.2898L31.9668 44.2886C31.974 44.2539 31.9794 44.2188 31.9832 44.1826C31.9836 44.1765 31.9836 44.17 31.9839 44.1639C31.9858 44.138 31.9877 44.1124 31.9877 44.0861V35.8261C32.0263 35.3909 32.0465 34.9346 32.0465 34.4669C32.0465 33.3553 32.9113 32.2018 34.0061 30.7411C35.8127 28.331 38.2873 25.0305 38.2873 19.5629C38.2873 12.2536 32.3406 6.30722 25.0317 6.30722C19.3005 6.30722 14.2422 9.96094 12.4439 15.3992C12.2745 15.9111 12.5526 16.4635 13.0646 16.6328ZM25.0317 48.0469C23.0461 48.0469 21.2555 46.846 20.4071 45.0626H29.6562C28.8074 46.846 27.0168 48.0469 25.0317 48.0469ZM30.035 43.1095H20.0283V40.9138H30.035V43.1095ZM30.035 38.9606H20.0283V36.7649H30.035V38.9606Z" fill="#F4F4F4"/>
<path fill-rule="evenodd" clip-rule="evenodd" d="M25.0317 4.55513C25.5711 4.55513 26.0082 4.11797 26.0082 3.57857V0.976562C26.0082 0.437164 25.5711 0 25.0317 0C24.4923 0 24.0551 0.437164 24.0551 0.976562V3.57857C24.0551 4.11797 24.4923 4.55513 25.0317 4.55513Z" fill="#F4F4F4"/>
<path fill-rule="evenodd" clip-rule="evenodd" d="M6.44531 20.5395H9.04732C9.58672 20.5395 10.0239 20.1023 10.0239 19.5629C10.0239 19.0235 9.58672 18.5864 9.04732 18.5864H6.44531C5.90591 18.5864 5.46875 19.0235 5.46875 19.5629C5.46875 20.1023 5.90591 20.5395 6.44531 20.5395Z" fill="#F4F4F4"/>
<path fill-rule="evenodd" clip-rule="evenodd" d="M13.0386 8.95082C13.2294 9.14156 13.4792 9.23692 13.7291 9.23692C13.979 9.23692 14.2288 9.14156 14.4196 8.95082C14.801 8.56935 14.801 7.95099 14.4196 7.5699L12.5797 5.73007C12.1983 5.3486 11.5799 5.3486 11.1984 5.73007C10.8173 6.11116 10.8173 6.72952 11.1984 7.11099L13.0386 8.95082Z" fill="#F4F4F4"/>
<path fill-rule="evenodd" clip-rule="evenodd" d="M11.2156 34.3555C11.4655 34.3555 11.7153 34.2602 11.9061 34.0694L13.7459 32.2296C14.1274 31.8481 14.1274 31.2302 13.7459 30.8487C13.3644 30.4672 12.7461 30.4672 12.365 30.8487L10.5248 32.6885C10.1437 33.07 10.1437 33.6884 10.5248 34.0694C10.7155 34.2602 10.9654 34.3555 11.2156 34.3555Z" fill="#F4F4F4"/>
<path fill-rule="evenodd" clip-rule="evenodd" d="M36.3342 9.23692C36.5841 9.23692 36.834 9.14155 37.0247 8.95082L38.8645 7.11099C39.246 6.72952 39.246 6.11115 38.8645 5.72968C38.4834 5.34822 37.8651 5.3486 37.4836 5.72968L35.6438 7.56951C35.2623 7.95098 35.2623 8.56935 35.6434 8.95082C35.8341 9.14155 36.0844 9.23692 36.3342 9.23692Z" fill="#F4F4F4"/>
<path fill-rule="evenodd" clip-rule="evenodd" d="M36.3174 30.8487C35.936 31.2298 35.936 31.8481 36.3174 32.2296L38.1573 34.0694C38.348 34.2602 38.5979 34.3555 38.8477 34.3555C39.0976 34.3555 39.3475 34.2602 39.5382 34.0694C39.9197 33.6884 39.9197 33.07 39.5382 32.6885L37.6984 30.8487C37.3169 30.4672 36.6985 30.4672 36.3174 30.8487Z" fill="#F4F4F4"/>
<path fill-rule="evenodd" clip-rule="evenodd" d="M41.016 20.5395H43.618C44.1574 20.5395 44.5946 20.1023 44.5946 19.5629C44.5946 19.0235 44.1574 18.5864 43.618 18.5864H41.016C40.4766 18.5864 40.0394 19.0235 40.0394 19.5629C40.0394 20.1023 40.4766 20.5395 41.016 20.5395Z" fill="#F4F4F4"/>
<path fill-rule="evenodd" clip-rule="evenodd" d="M13.7291 19.5629C13.7291 19.0251 13.2904 18.5864 12.7525 18.5864C12.2143 18.5864 11.776 19.0251 11.776 19.5629C11.776 20.1008 12.2143 20.5395 12.7525 20.5395C13.2904 20.5395 13.7291 20.1008 13.7291 19.5629Z" fill="#F4F4F4"/>
<path d="M32.49 19.9046C32.4879 19.3576 32.356 18.8188 32.1052 18.3327C31.8543 17.8466 31.4916 17.4269 31.047 17.1083C31.197 16.3408 31.0816 15.5451 30.7196 14.8518C30.3577 14.1586 29.7708 13.609 29.0552 13.2934C28.3397 12.9778 27.5381 12.9149 26.7821 13.1151C26.0261 13.3152 25.3607 13.7665 24.8951 14.3948C24.4633 13.8118 23.8585 13.38 23.1668 13.1609C22.4752 12.9418 21.7321 12.9466 21.0434 13.1746C20.3546 13.4027 19.7555 13.8423 19.3313 14.4309C18.9071 15.0194 18.6795 15.7269 18.681 16.4524C18.6797 16.6729 18.7028 16.8929 18.75 17.1083C18.3025 17.4242 17.9373 17.8429 17.685 18.3291C17.4327 18.8154 17.3007 19.355 17.3 19.9028C17.2993 20.4506 17.43 20.9906 17.6811 21.4775C17.9322 21.9643 18.2964 22.3839 18.7431 22.7009C18.5924 23.4687 18.7076 24.2649 19.0698 24.9585C19.432 25.6521 20.0195 26.2016 20.7357 26.5167C21.4519 26.8318 22.254 26.8936 23.01 26.692C23.766 26.4904 24.4309 26.0374 24.8951 25.4075C25.3253 25.9922 25.9295 26.4259 26.6211 26.6466C27.3127 26.8672 28.0564 26.8635 28.7458 26.636C29.4352 26.4085 30.0351 25.9688 30.4595 25.3799C30.884 24.7909 31.1113 24.0828 31.1091 23.3569C31.1104 23.1363 31.0873 22.9164 31.0401 22.7009C31.4872 22.3842 31.8521 21.9652 32.1044 21.4787C32.3566 20.9923 32.4888 20.4526 32.49 19.9046ZM24.2046 23.3569C24.2046 23.9062 23.9864 24.4331 23.5979 24.8215C23.2095 25.21 22.6826 25.4282 22.1332 25.4282C21.5839 25.4282 21.057 25.21 20.6686 24.8215C20.2801 24.4331 20.0619 23.9062 20.0619 23.3569C20.0619 23.3293 20.0688 23.3085 20.0688 23.2878C20.294 23.332 20.5229 23.3551 20.7523 23.3569C21.3582 23.3556 21.9532 23.1962 22.4785 22.8943L21.788 21.6929C21.4964 21.8664 21.1659 21.9637 20.8268 21.9757C20.4877 21.9878 20.151 21.9143 19.8479 21.7619C19.4971 21.593 19.2013 21.3281 18.9947 20.9981C18.7882 20.668 18.6794 20.2862 18.6808 19.8968C18.6823 19.5074 18.7939 19.1265 19.0029 18.7979C19.2119 18.4694 19.5096 18.2067 19.8617 18.0404C20.164 17.8928 20.4982 17.8224 20.8344 17.8357C21.1706 17.8489 21.4983 17.9454 21.788 18.1164L22.4785 16.915C21.747 16.503 20.8924 16.3658 20.0688 16.5283C20.0688 16.5007 20.0619 16.48 20.0619 16.4524C20.0618 15.9469 20.2465 15.4588 20.5812 15.0801C20.916 14.7014 21.3777 14.4581 21.8793 14.3962C22.381 14.3342 22.888 14.4578 23.3048 14.7437C23.7217 15.0296 24.0196 15.458 24.1425 15.9483C24.1856 16.1128 24.2065 16.2823 24.2046 16.4524V23.3569ZM29.9284 21.7688C29.6261 21.9165 29.2919 21.9868 28.9557 21.9736C28.6195 21.9603 28.2918 21.8639 28.0021 21.6929L27.3116 22.8943C27.8369 23.1962 28.4319 23.3556 29.0378 23.3569C29.2672 23.3551 29.4961 23.332 29.7213 23.2878C29.7213 23.3085 29.7282 23.3293 29.7282 23.3569C29.7282 23.9062 29.51 24.4331 29.1215 24.8215C28.7331 25.21 28.2062 25.4282 27.6569 25.4282C27.1075 25.4282 26.5806 25.21 26.1922 24.8215C25.8037 24.4331 25.5855 23.9062 25.5855 23.3569V16.4524C25.5833 16.2773 25.6065 16.1029 25.6545 15.9345C25.783 15.4493 26.0834 15.0272 26.4997 14.7467C26.9161 14.4663 27.4201 14.3466 27.9181 14.4099C28.4161 14.4732 28.8741 14.7152 29.2071 15.0909C29.54 15.4666 29.7252 15.9504 29.7282 16.4524C29.7282 16.48 29.7213 16.5007 29.7213 16.5283C28.8977 16.362 28.0418 16.4994 27.3116 16.915L28.0021 18.1164C28.2937 17.9428 28.6242 17.8456 28.9633 17.8335C29.3024 17.8214 29.6391 17.895 29.9422 18.0473C30.293 18.2163 30.5888 18.4811 30.7954 18.8112C31.0019 19.1413 31.1107 19.5231 31.1093 19.9124C31.1078 20.3018 30.9962 20.6828 30.7872 21.0113C30.5782 21.3398 30.2805 21.6025 29.9284 21.7688Z" fill="#F4F4F4"/>
</svg>
