<svg width="50" height="50" viewBox="0 0 50 50" fill="none" xmlns="http://www.w3.org/2000/svg">
<path fill-rule="evenodd" clip-rule="evenodd" d="M45.2844 3.125C34.0406 3.1375 24.4906 9.32188 17.675 15.625H4.6875L3.125 17.1875V26.5625L3.58437 27.6688L6.68125 30.7656L6.68437 30.7938L19.1844 43.2938L19.2125 43.2969L22.3344 46.4188L23.4375 46.875H32.8125L34.375 45.3125V32.3312C40.6844 25.525 46.8625 15.9781 46.85 4.6875L45.2844 3.125ZM6.25 18.75H14.5094C11.9868 21.3983 9.66283 24.2289 7.55625 27.2188L6.25 25.9187V18.75ZM24.0625 43.75L22.75 42.4281C25.7459 40.3333 28.5819 38.0186 31.2344 35.5031V43.75H24.0625ZM20.4906 40.175L9.8 29.4906C12.9 25 26.1844 7.35938 43.6812 6.3C42.6625 23.8375 24.9719 37.0906 20.4906 40.175ZM12.5 46.875V43.75H6.25V37.5H3.125V46.875H12.5ZM33.5875 22.9156C34.2779 21.8813 34.5291 20.615 34.2859 19.3955C34.0427 18.1759 33.325 17.1029 32.2906 16.4125C31.2563 15.7221 29.99 15.4709 28.7705 15.7141C27.5509 15.9573 26.4779 16.675 25.7875 17.7094C25.0971 18.7433 24.8457 20.0091 25.0886 21.2284C25.3316 22.4477 26.0489 23.5205 27.0828 24.2109C28.1167 24.9013 29.3826 25.1527 30.6019 24.9098C31.8211 24.6669 32.894 23.9496 33.5844 22.9156H33.5875Z" fill="#F4F4F4"/>
</svg>
