<svg width="101" height="101" viewBox="0 0 101 101" fill="none" xmlns="http://www.w3.org/2000/svg">
<path d="M50.4995 97.8436C76.6467 97.8436 97.8433 76.647 97.8433 50.4998C97.8433 24.3526 76.6467 3.15607 50.4995 3.15607C24.3523 3.15607 3.15576 24.3526 3.15576 50.4998C3.15576 76.647 24.3523 97.8436 50.4995 97.8436Z" fill="#2FDF84"/>
<path d="M28.7722 68.3853L24.1978 41.7339L39.0658 48.9765L50.4998 28.4062L61.9339 48.9765L76.8019 41.7339L72.2275 68.3853H28.7722Z" fill="#F3F3F1"/>
<path d="M24.1978 41.7339L28.7722 68.3853H37.1889L33.3803 46.2074L24.1978 41.7339Z" fill="#D5DBE1"/>
<path d="M11.5724 50.4998C11.5724 25.7717 30.5352 5.50011 54.7079 3.37069C53.3191 3.24865 51.9219 3.15607 50.4995 3.15607C24.3531 3.15607 3.15576 24.3534 3.15576 50.4998C3.15576 76.6462 24.3531 97.8436 50.4995 97.8436C51.9219 97.8436 53.3191 97.7552 54.7079 97.6289C30.5352 95.4995 11.5724 75.228 11.5724 50.4998Z" fill="#00B871"/>
<path d="M50.5 101C22.6535 101 0 78.3465 0 50.5C0 22.6535 22.6535 0 50.5 0C58.4159 0 65.9993 1.78433 73.0356 5.29829L70.2118 10.9459C64.0635 7.86958 57.4269 6.3125 50.5 6.3125C26.1338 6.3125 6.3125 26.1338 6.3125 50.5C6.3125 74.8662 26.1338 94.6875 50.5 94.6875C74.8662 94.6875 94.6875 74.8662 94.6875 50.5C94.6875 37.4037 88.9263 25.0564 78.8768 16.6229L82.9336 11.7918C94.4182 21.4246 101 35.531 101 50.5C101 78.3465 78.3465 101 50.5 101Z" fill="black"/>
<path d="M72.2272 71.5415H28.7719C27.2359 71.5415 25.9229 70.4347 25.6619 68.9197L21.0875 42.2684C20.8897 41.1027 21.3568 39.9201 22.3037 39.2089C23.2506 38.4935 24.5173 38.3799 25.582 38.8975L37.7609 44.827L47.7431 26.8701C48.8541 24.8627 52.1492 24.8627 53.2602 26.8701L63.2424 44.827L75.4213 38.8975C76.486 38.3799 77.7527 38.4935 78.6996 39.2089C79.6464 39.9201 80.1136 41.0984 79.9158 42.2684L75.3413 68.9197C75.0762 70.4347 73.7632 71.5415 72.2272 71.5415ZM31.4316 65.229H69.5675L72.648 47.2637L63.3181 51.8087C61.8031 52.5535 59.9893 51.9728 59.1771 50.5041L50.4995 34.9038L41.8219 50.5083C41.0097 51.977 39.1917 52.5535 37.6809 51.8129L28.3511 47.2679L31.4316 65.229Z" fill="black"/>
</svg>
